<?xml version="1.0" encoding="UTF-8"?>
<svg id="Calque_1" data-name="Calque 1" xmlns="http://www.w3.org/2000/svg" viewBox="0 0 400 400">
  <defs>
    <style>
      .cls-1 {
        fill: #9ec9e8;
      }

      .cls-1, .cls-2 {
        isolation: isolate;
      }

      .cls-2 {
        fill: #729db7;
      }
    </style>
  </defs>
  <path class="cls-1" d="m366.72,99.01l-163.04,94.13c-1.14.66-2.54.66-3.67,0L36.97,99.01c-2.45-1.41-2.45-4.95,0-6.36L185.17,7.09c10.32-5.96,23.04-5.96,33.37,0l148.19,85.56c2.45,1.41,2.45,4.95,0,6.36Z"/>
  <path class="cls-2" d="m377.16,111.32v171.11c0,11.92-6.36,22.94-16.68,28.9l-148.19,85.56c-2.45,1.41-5.51-.35-5.51-3.18v-188.26c0-1.31.7-2.52,1.84-3.18l163.04-94.13c2.45-1.41,5.51.35,5.51,3.18Z"/>
  <path class="cls-1" d="m26.89,111.32v171.11c0,11.92,6.36,22.94,16.68,28.9l148.19,85.56c2.45,1.41,5.51-.35,5.51-3.18v-188.26c0-1.31-.7-2.52-1.84-3.18L32.4,108.13c-2.45-1.41-5.51.35-5.51,3.18Z"/>
</svg>