<?xml version="1.0" encoding="UTF-8"?>
<svg id="Calque_1" data-name="Calque 1" xmlns="http://www.w3.org/2000/svg" viewBox="0 0 200 200.33">
  <defs>
    <style>
      .cls-1 {
        fill: #fff;
        stroke-width: 0px;
      }
    </style>
  </defs>
  <path class="cls-1" d="m99.92,200.33c-26.73,0-51.87-10.41-70.77-29.31C10.24,152.12-.17,126.98-.17,100.25S10.24,48.38,29.15,29.48C48.05,10.58,73.18.17,99.92.17s51.87,10.41,70.77,29.31c18.9,18.9,29.31,44.04,29.31,70.77s-10.41,51.87-29.31,70.77c-18.9,18.9-44.04,29.31-70.77,29.31Zm0-181.64c-44.97,0-81.56,36.59-81.56,81.56s36.59,81.56,81.56,81.56,81.56-36.59,81.56-81.56S144.89,18.69,99.92,18.69Z"/>
  <polygon class="cls-1" points="159.38 100.25 113.24 126.89 67.09 153.53 67.09 100.25 67.09 46.97 113.24 73.61 159.38 100.25"/>
</svg>