<?xml version="1.0" encoding="UTF-8"?>
<svg id="Calque_1" data-name="Calque 1" xmlns="http://www.w3.org/2000/svg" viewBox="0 0 400 400">
  <defs>
    <style>
      .cls-1 {
        isolation: isolate;
      }

      .cls-2 {
        fill: #9ec9eb;
      }
    </style>
  </defs>
  <g class="cls-1">
    <path class="cls-2" d="m117.25,277.09c-7.17-2.63-14.69-2.83-23.02-1.65-19.85,2.81-35.37,20.51-41.88,38.63-4.85,13.49-5.77,28.22-11.26,41.47-7.15,17.25-22.2,31.03-40.01,36.63,38.81-1.15,78.18-7.2,112.93-24.52,12.25-6.1,24.18-13.91,31.58-25.42,6.28-9.77,10.33-27.04,2.45-37.23-6.32-8.17-12.78-16.55-21.19-22.7-3.15-2.3-6.34-4-9.6-5.2Z"/>
  </g>
  <path class="cls-2" d="m394.48,67.1l-235.19,224.28c-1.45,1.52-3.16,2.66-5.02,3.47l-27.52-24.07c.65-2.58,1.91-4.98,3.83-6.97L335.63,12.39c7.13-7.43,19.92-6.85,28.39,1.29l28.18,27.05c7.89,7.58,8.92,19.45,2.27,26.37Z"/>
</svg>