<?xml version="1.0" encoding="UTF-8"?>
<svg id="Calque_1" data-name="Calque 1" xmlns="http://www.w3.org/2000/svg" viewBox="0 0 400 400">
  <defs>
    <style>
      .cls-1, .cls-2 {
        isolation: isolate;
      }

      .cls-3, .cls-2 {
        fill: #9ec9e8;
      }
    </style>
  </defs>
  <g class="cls-1">
    <path class="cls-3" d="m399.75,302.39c-3.58-51.82-18.36-102.81-42.9-148.59-7.51-14.01-14.45-31.23-30.92-36.18-7.67-2.3-15.77-2.38-23.78-2.17-1.18.03-2.37.06-3.53.1-13.45.4-26.89.72-40.34.96-40.68.7-81.35.66-122.01-.16-10.78-.21-21.54-.48-32.31-.8-3.84-.11-7.72-.24-11.56-.16-5.55.13-11.06.67-16.36,2.27-11.62,3.47-16.16,11-22.18,20.56-6.91,11-12.86,22.77-18.32,34.54-10.98,23.68-19.46,48.51-25.23,73.95-4.16,18.31-6.92,36.95-8.22,55.69-.38,5.69-.61,11.64,1.69,16.87,4.91,11.14,18.74,14.63,30.75,16.72,13.19,2.32,28.08,4.25,38.84-3.73,6.46-4.8,10.17-12.38,13.62-19.65,6.32-13.27,12.62-26.53,18.93-39.78.37-.8,1.44-4.27,2.22-4.57.85-.3,3.34,1.36,4.19,1.73,3.04,1.28,6.16,2.35,9.35,3.17,6.35,1.66,12.97,2.38,19.52,1.92.78-.06,1.57-.13,2.35-.22,12.1-1.38,23.84-6.99,31.8-16.21,1.09-1.26,2.09-2.59,3.07-3.93.8-1.12,1.77-3.45,2.93-4.17.94-.61,2.77-.27,3.89-.27h32.36c1.31,0,2.05.05,2.61.32.72.37,1.14,1.09,2.13,2.56,1.61,2.43,3.41,4.75,5.39,6.88,7.8,8.33,18.77,13.4,30.08,14.79,6.46.78,13.02.4,19.36-.93,3.25-.67,6.44-1.6,9.56-2.75,2.06-.77,5.76-3.52,7.55-1.68,2.09,2.17,3.28,6.78,4.57,9.51,1.57,3.29,3.13,6.6,4.72,9.9,3.13,6.6,6.27,13.19,9.4,19.79.64,1.33,1.26,2.64,1.89,3.97,3.47,7.27,7.16,14.85,13.64,19.65,10.76,7.98,25.65,6.04,38.84,3.73,11.99-2.09,25.84-5.58,30.75-16.72,2.3-5.23,2.08-11.18,1.68-16.87ZM115.7,197.77c0,2.06-1.68,3.74-3.76,3.74h-17.22c-2.06,0-3.74-1.68-3.74-3.74v-15.32h-15.32c-2.08,0-3.76-1.68-3.76-3.76v-17.22c0-2.06,1.68-3.74,3.76-3.74h15.32v-15.32c0-2.08,1.68-3.76,3.74-3.76h17.22c2.08,0,3.76,1.68,3.76,3.76v15.32h15.32c2.06,0,3.74,1.68,3.74,3.74v17.22c0,2.08-1.68,3.76-3.74,3.76h-15.32v15.32Zm25.47,62.49c-13.35,0-24.18-10.82-24.18-24.19s10.82-24.19,24.18-24.19,24.19,10.82,24.19,24.19-10.82,24.19-24.19,24.19Zm41.27-86.12c0,.45-.35.8-.8.8h-20.64c-.45,0-.8-.35-.8-.8v-8.11c0-.45.35-.8.8-.8h20.64c.45,0,.8.35.8.8v8.11Zm105.77-4.05c0,6.33-5.15,11.46-11.48,11.46s-11.48-5.13-11.48-11.46,5.13-11.48,11.48-11.48,11.48,5.13,11.48,11.48Zm-67.03,4.84c-.45,0-.82-.35-.82-.8v-8.11c0-.45.37-.8.82-.8h20.63c.45,0,.82.35.82.8v8.11c0,.45-.37.8-.82.8h-20.63Zm44.07,85.32c-13.37,0-24.19-10.82-24.19-24.19s10.82-24.19,24.19-24.19,24.19,10.82,24.19,24.19-10.84,24.19-24.19,24.19Zm35.67-54.79c-6.35,0-11.48-5.13-11.48-11.48s5.13-11.48,11.48-11.48,11.48,5.15,11.48,11.48-5.15,11.48-11.48,11.48Zm0-48.03c-6.35,0-11.48-5.13-11.48-11.48s5.13-11.46,11.48-11.46,11.48,5.13,11.48,11.46-5.15,11.48-11.48,11.48Zm23.78,24.13c-6.35,0-11.48-5.13-11.48-11.46s5.13-11.48,11.48-11.48,11.48,5.13,11.48,11.48-5.15,11.46-11.48,11.46Z"/>
  </g>
  <rect class="cls-2" x="92.56" y="110.08" width="43.79" height="13.18" rx=".97" ry=".97" transform="translate(-4.92 5.04) rotate(-2.47)"/>
  <rect class="cls-2" x="92.56" y="115.12" width="43.79" height="3.09" rx=".97" ry=".97" transform="translate(-4.92 5.04) rotate(-2.47)"/>
  <rect class="cls-2" x="263.48" y="110.08" width="43.79" height="13.18" rx=".97" ry=".97" transform="translate(565.46 245.52) rotate(-177.53)"/>
</svg>