<?xml version="1.0" encoding="UTF-8"?>
<svg id="Calque_1" data-name="Calque 1" xmlns="http://www.w3.org/2000/svg" viewBox="0 0 400 400">
  <defs>
    <style>
      .cls-1 {
        fill: #9ec9e9;
        isolation: isolate;
        stroke-width: 0px;
      }
    </style>
  </defs>
  <path class="cls-1" d="m376.84,85.58H23.17c-6.6,0-12,5.4-12,12v199.29c0,6.6,5.4,12,12,12h353.67c6.6,0,12-5.4,12-12V97.58c0-6.6-5.4-12-12-12Zm-102.04,132.41c4.47,0,8.09,3.62,8.09,8.09s-3.62,8.08-8.09,8.08-8.08-3.62-8.08-8.08,3.62-8.09,8.08-8.09Zm-119.69-42.03c0-.64.28-1.22.72-1.48l9.1-5.26,26.51-15.34c.96-.55.96-2.39,0-2.95l-26.51-15.33-9.1-5.26c-.44-.26-.72-.84-.72-1.48v-7.63c0-1.15.87-1.93,1.66-1.47l27.4,15.84,26.51,15.33c.96.56.96,2.4,0,2.95l-26.51,15.34-27.4,15.85c-.79.45-1.66-.32-1.66-1.47v-7.64Zm-58.61,15.87l37.11-80.56c.27-.6.87-.97,1.53-.95l10.63.36c1.17.04,1.92,1.25,1.43,2.31l-37.1,80.57c-.28.59-.88.96-1.54.94l-10.63-.35c-1.17-.04-1.92-1.26-1.43-2.32Zm9.34,26.94v12.86c0,.91-.74,1.66-1.65,1.66h-44.68c-.91,0-1.66-.75-1.66-1.66v-12.86c0-.91.75-1.66,1.66-1.66h44.68c.91,0,1.65.75,1.65,1.66ZM30.83,150.93l26.51-15.33,27.4-15.84c.79-.46,1.66.32,1.66,1.47v7.63c0,.64-.28,1.22-.72,1.48l-9.1,5.26-26.51,15.33c-.96.56-.96,2.4,0,2.95l26.51,15.34,9.1,5.26c.44.26.72.84.72,1.48v7.64c0,1.15-.87,1.92-1.66,1.47l-27.4-15.85-26.51-15.34c-.96-.55-.96-2.39,0-2.95Zm15.46,74.27c0,4.47-3.62,8.09-8.09,8.09s-8.09-3.62-8.09-8.09,3.62-8.09,8.09-8.09,8.09,3.62,8.09,8.09Zm108.82,44.04c0,.91-.74,1.65-1.66,1.65H31.77c-.92,0-1.66-.74-1.66-1.65v-12.87c0-.91.74-1.65,1.66-1.65h121.68c.92,0,1.66.74,1.66,1.65v12.87Zm17.33,1.65c-4.47,0-8.09-3.62-8.09-8.08s3.62-8.09,8.09-8.09,8.09,3.62,8.09,8.09-3.63,8.08-8.09,8.08Zm74.41-3.4c0,.91-.74,1.66-1.65,1.66h-44.68c-.91,0-1.66-.75-1.66-1.66v-12.87c0-.91.75-1.65,1.66-1.65h44.68c.91,0,1.65.74,1.65,1.65v12.87Zm0-35.86c0,.91-.74,1.66-1.65,1.66h-121.69c-.91,0-1.66-.75-1.66-1.66v-12.86c0-.91.75-1.66,1.66-1.66h121.69c.91,0,1.65.75,1.65,1.66v12.86Zm67.86,35.86c0,.91-.75,1.66-1.66,1.66h-44.68c-.91,0-1.65-.75-1.65-1.66v-12.87c0-.91.74-1.65,1.65-1.65h44.68c.91,0,1.66.74,1.66,1.65v12.87Zm26.42,1.66c-4.47,0-8.09-3.63-8.09-8.09s3.62-8.09,8.09-8.09,8.09,3.62,8.09,8.09-3.62,8.09-8.09,8.09Zm8.09-38.39c0,.91-.74,1.66-1.66,1.66h-44.67c-.91,0-1.66-.75-1.66-1.66v-12.87c0-.91.75-1.65,1.66-1.65h44.67c.92,0,1.66.74,1.66,1.65v12.87Z"/>
</svg>