<?xml version="1.0" encoding="UTF-8"?>
<svg id="Calque_1" data-name="Calque 1" xmlns="http://www.w3.org/2000/svg" viewBox="0 0 400 400">
  <defs>
    <style>
      .cls-1 {
        fill: #9ec9eb;
      }

      .cls-1, .cls-2 {
        isolation: isolate;
      }

      .cls-3 {
        fill: none;
        stroke: #9dc9e9;
        stroke-miterlimit: 10;
        stroke-width: 17px;
      }

      .cls-2 {
        fill: #749db6;
      }
    </style>
  </defs>
  <path class="cls-1" d="m164.93,135.6l26.51,15.33c.96.56.96,2.39,0,2.95l-26.51,15.33-9.1,5.26c-.44.25-.72.83-.72,1.47v7.64c0,1.15.87,1.93,1.66,1.47l27.4-15.85,26.51-15.33c.96-.56.96-2.39,0-2.95l-26.51-15.33-27.4-15.84c-.78-.45-1.66.32-1.66,1.47v7.63c0,.64.28,1.22.72,1.47l9.1,5.26Z"/>
  <path class="cls-1" d="m76.57,135.6l-26.51,15.33c-.96.56-.96,2.39,0,2.95l26.51,15.33,9.1,5.26c.44.25.72.83.72,1.47v7.64c0,1.15-.87,1.93-1.66,1.47l-27.4-15.85-26.51-15.33c-.96-.56-.96-2.39,0-2.95l26.51-15.33,27.4-15.84c.78-.45,1.66.32,1.66,1.47v7.63c0,.64-.28,1.22-.72,1.47l-9.1,5.26Z"/>
  <path class="cls-1" d="m108.56,194.5l-10.63-.36c-1.16-.04-1.91-1.25-1.43-2.31l37.1-80.56c.27-.6.88-.97,1.54-.95l10.63.36c1.16.04,1.91,1.25,1.43,2.31l-37.1,80.56c-.27.6-.88.97-1.54.95Z"/>
  <rect class="cls-3" x="11.17" y="85.57" width="377.67" height="223.29" rx="12" ry="12"/>
  <circle class="cls-2" cx="38.19" cy="225.2" r="8.09"/>
  <circle class="cls-2" cx="172.43" cy="262.8" r="8.09"/>
  <rect class="cls-1" x="57.85" y="217.11" width="47.99" height="16.18" rx="1.66" ry="1.66"/>
  <circle class="cls-2" cx="341.13" cy="261.05" r="8.09"/>
  <rect class="cls-1" x="266.71" y="252.96" width="47.99" height="16.18" rx="1.66" ry="1.66"/>
  <rect class="cls-1" x="198.86" y="252.96" width="47.99" height="16.18" rx="1.66" ry="1.66"/>
  <rect class="cls-1" x="121.85" y="217.11" width="125" height="16.18" rx="1.66" ry="1.66"/>
  <rect class="cls-1" x="30.1" y="254.71" width="125" height="16.18" rx="1.66" ry="1.66"/>
  <circle class="cls-2" cx="274.8" cy="226.07" r="8.09"/>
  <rect class="cls-1" x="301.23" y="216.23" width="47.99" height="16.18" rx="1.66" ry="1.66"/>
</svg>