<?xml version="1.0" encoding="UTF-8"?>
<svg id="Calque_1" data-name="Calque 1" xmlns="http://www.w3.org/2000/svg" viewBox="0 0 400 400">
  <defs>
    <style>
      .cls-1 {
        fill: none;
        stroke: #9dc9e9;
        stroke-miterlimit: 10;
        stroke-width: 16px;
      }

      .cls-2 {
        fill: #9ec9e8;
      }

      .cls-2, .cls-3 {
        isolation: isolate;
      }

      .cls-3 {
        fill: #729db7;
      }
    </style>
  </defs>
  <path class="cls-3" d="m384.04,208.62c5.62,19.17-54.22,39.14-133.67,44.61-79.45,5.47-148.41-5.64-154.04-24.8"/>
  <circle class="cls-1" cx="62.53" cy="172.46" r="51.37"/>
  <circle class="cls-1" cx="112.49" cy="294.67" r="51.37"/>
  <path class="cls-2" d="m392.99,89.23l-97.2-51.23c-5.4-2.85-12.07-.78-14.91,4.62l-111.1,210.76c-2.84,5.39-.76,12.07,4.63,14.92l97.19,51.23c5.39,2.84,12.07.76,14.92-4.63l111.09-210.75c2.84-5.39.78-12.07-4.62-14.91Zm-129.34,3.8l21.84-41.43c.59-1.13,2-1.57,3.13-.98l9.92,5.23c1.12.59,1.55,2,.96,3.13l-21.84,41.43c-.59,1.13-2,1.57-3.13.98l-9.92-5.23c-1.13-.59-1.57-2-.96-3.13Zm-48.11,125.23l-21.84,41.44c-.59,1.13-2,1.57-3.13.96l-9.92-5.23c-1.13-.59-1.57-2-.96-3.13l21.84-41.43c.59-1.13,1.99-1.57,3.13-.96l9.91,5.22c1.12.61,1.55,2,.96,3.13Zm27.87-52.89l-21.83,41.44c-.61,1.12-2.01,1.56-3.13.96l-9.92-5.23c-1.13-.59-1.57-2-.98-3.13l21.84-41.43c.6-1.13,2-1.57,3.13-.98l9.92,5.23c1.13.6,1.57,2,.96,3.13Zm3.24-11.09l-9.92-5.23c-1.13-.59-1.57-2-.98-3.13l21.84-41.43c.6-1.13,2-1.57,3.13-.98l9.92,5.23c1.13.59,1.57,2,.98,3.13l-21.84,41.43c-.6,1.13-2.01,1.57-3.13.98Zm57.96,105.84l-21.84,41.44c-.59,1.13-2,1.57-3.13.96l-9.92-5.23c-1.13-.59-1.55-2-.96-3.13l21.84-41.43c.59-1.13,2-1.57,3.13-.96l9.92,5.22c1.13.6,1.57,2,.96,3.13Zm27.89-52.89l-21.84,41.44c-.6,1.13-2.01,1.56-3.13.96l-9.92-5.23c-1.13-.59-1.57-2-.98-3.13l21.84-41.43c.6-1.13,2-1.57,3.13-.96l9.91,5.22c1.13.6,1.57,2,.98,3.13Zm28.2-53.49l-21.84,41.44c-.61,1.12-2,1.55-3.13.96l-9.92-5.23c-1.13-.59-1.57-2-.98-3.13l21.84-41.43c.6-1.13,2-1.57,3.13-.98l9.92,5.23c1.13.6,1.57,2,.98,3.13Zm26.97-51.75l-21.84,41.43c-.59,1.13-2,1.57-3.13.98l-9.92-5.23c-1.12-.61-1.55-2-.96-3.13l21.84-41.44c.59-1.12,2-1.55,3.13-.96l9.92,5.23c1.13.59,1.57,2,.96,3.13Z"/>
  <path class="cls-3" d="m97.37,231.27c-7.96-18.38,38.92-68.33,104.7-111.56,65.79-43.23,125.57-63.37,133.53-44.99"/>
  <circle class="cls-2" cx="100.14" cy="227.99" r="13.51"/>
</svg>