<?xml version="1.0" encoding="UTF-8"?>
<svg id="Calque_1" data-name="Calque 1" xmlns="http://www.w3.org/2000/svg" viewBox="0 0 400 400">
  <defs>
    <style>
      .cls-1 {
        fill: #fff;
        stroke-width: 0px;
      }
    </style>
  </defs>
  <path class="cls-1" d="m136.8,141.13c4.57,17.09,14.2,46.23,19.02,62.12h-38.04c6.26-19.5,14.92-45.99,18.78-62.12h.24Z"/>
  <path class="cls-1" d="m339.24,6.49H60.76C28.18,6.49,1.53,33.15,1.53,65.72v268.56c0,32.58,26.65,59.23,59.23,59.23h278.48c32.58,0,59.24-26.65,59.24-59.23V65.72c0-32.57-26.66-59.23-59.24-59.23Zm-128.28,264.42h-31.3c-1.45,0-2.17-.48-2.65-1.69l-12.28-35.87h-55.62l-11.56,35.63c-.48,1.21-1.2,1.93-2.65,1.93h-27.93c-1.68,0-2.17-.96-1.93-2.41l48.16-138.93c.96-2.65,1.93-5.54,2.41-14.69,0-.96.72-1.68,1.44-1.68h38.53c1.2,0,1.68.24,1.93,1.44l54.65,154.1c.48,1.21.24,2.17-1.2,2.17Zm116.3-53.94c-.24,1.21-.73,1.69-1.93,1.93-3.13.48-12.28.96-24.8.96h-46.95c1.2,13.73,10.83,25.04,34.43,25.04,10.83,0,20.47-1.68,29.62-5.53.72-.49,1.44-.24,1.44,1.2v22.88c0,1.68-.48,2.4-1.69,2.88-9.63,4.58-20.22,6.99-36.84,6.99-45.26,0-61.15-31.06-61.15-60.92,0-33.23,20.46-63.57,58.27-63.57s50.8,28.17,50.8,52.01c0,7.47-.48,13.49-1.2,16.13Zm-50.81-41.65c-15.17,0-21.67,11.31-23.11,21.19h31.54c7.7,0,11.08-.24,12.04-.48v-1.69c0-5.78-4.58-19.02-20.47-19.02Z"/>
</svg>