<?xml version="1.0" encoding="UTF-8"?>
<svg id="Calque_1" data-name="Calque 1" xmlns="http://www.w3.org/2000/svg" viewBox="0 0 400 400">
  <defs>
    <style>
      .cls-1 {
        fill: #fff;
        stroke-width: 0px;
      }
    </style>
  </defs>
  <path class="cls-1" d="m89.36,210.46c3.45,8.72,6.84,17.29,10.26,25.93h-20.53c3.41-8.61,6.81-17.2,10.27-25.93Z"/>
  <path class="cls-1" d="m231.89,210.46c-3.46,8.75-6.85,17.31-10.27,25.93h20.55c-3.42-8.62-6.82-17.2-10.28-25.93Zm0,0c-3.46,8.75-6.85,17.31-10.27,25.93h20.55c-3.42-8.62-6.82-17.2-10.28-25.93ZM339.22,6.49H60.74C28.18,6.49,1.53,33.14,1.53,65.72v268.56c0,32.57,26.66,59.23,59.22,59.23h278.48c32.58,0,59.25-26.66,59.25-59.23V65.72c0-32.58-26.67-59.23-59.25-59.23ZM119.42,198.46c3.04,3.06,6.13,6.17,9.22,9.28.07-.03.14-.05.21-.08v-.63c0-15.92-.01-31.85,0-47.77,0-3.67.25-7.32,1.35-10.85,1.79-5.73,5.69-9.35,11.3-11.24,3.21-1.09,6.53-1.64,9.91-1.68,5.37-.06,10.74-.11,16.11.04,4.7.13,9.32.89,13.68,2.78,6.36,2.76,10.09,7.58,11.29,14.4.55,3.12.47,6.27.48,9.47h-17.92c0-1.49.02-2.98-.01-4.46-.02-1.61-.22-3.19-.84-4.69-1.37-3.32-3.89-5.27-7.43-5.48-3.89-.23-7.8-.14-11.7-.11-1.16.02-2.34.23-3.47.52-3.77.98-5.98,3.54-6.81,7.26-.34,1.51-.55,3.08-.56,4.62-.04,15.81-.02,31.63-.02,47.45,0,.1,0,.21.02.45,3.17-3.18,6.25-6.27,9.31-9.34,2.8,2.8,5.54,5.54,8.25,8.25-8.42,8.42-16.88,16.87-25.31,25.3-8.41-8.41-16.86-16.85-25.29-25.28,2.72-2.71,5.46-5.45,8.23-8.21Zm4.49,63.53c-4.46,0-8.92-.01-13.38.02-.54,0-.8-.14-1.01-.67-1.59-4.13-3.23-8.23-4.84-12.35-.16-.42-.37-.57-.83-.57-9.68.02-19.37.02-29.05.01-.4,0-.58.11-.73.5-1.64,4.18-3.29,8.34-4.93,12.52-.14.34-.25.56-.7.55-6.14,0-12.28,0-18.42,0-.11,0-.21-.01-.4-.02.59-1.34,1.15-2.64,1.72-3.94,3.66-8.33,7.32-16.66,10.99-24.99,4.58-10.41,9.17-20.82,13.76-31.23.75-1.72,1.51-3.42,2.25-5.14.15-.37.35-.5.76-.5,6.82.01,13.65.01,20.47,0,.43,0,.64.12.81.52,4.42,10.07,8.85,20.13,13.27,30.19,5.07,11.5,10.13,23,15.19,34.51.08.17.14.34.24.6h-5.17Zm67.92-69.72v.92c0,15.69,0,31.38,0,47.07,0,3.28-.18,6.56-.95,9.77-1.6,6.75-5.85,10.96-12.41,12.98-3.3,1.01-6.7,1.45-10.13,1.5-4.67.08-9.35.07-14.02-.03-4.65-.11-9.25-.71-13.65-2.36-4.32-1.62-7.88-4.19-10.2-8.27-1.58-2.77-2.38-5.78-2.6-8.93-.16-2.23-.11-4.47-.15-6.71,0-.14.02-.29.03-.47h17.88v.68c.04,1.9,0,3.8.14,5.69.38,4.82,4.12,8.32,8.98,8.4,3.58.06,7.17.06,10.75,0,2.23-.04,4.4-.49,6.33-1.71,2.55-1.61,3.74-4.08,4.24-6.92.25-1.44.39-2.91.39-4.38.03-15.34.02-30.69.02-46.04v-1.29c-3.18,3.19-6.27,6.3-9.32,9.36-2.81-2.82-5.55-5.55-8.24-8.24,8.38-8.37,16.82-16.81,25.22-25.19l25.22,25.22c-2.64,2.63-5.37,5.35-8.15,8.12-3-3.04-6.1-6.16-9.19-9.28-.06.04-.12.07-.19.11Zm79.11,69.72c-6,0-11.99,0-17.98,0-.48,0-.7-.12-.87-.58-1.62-4.16-3.27-8.3-4.9-12.46-.15-.4-.34-.54-.78-.54-9.68.02-19.37.02-29.05.01-.44-.01-.63.14-.79.53-1.6,4.1-3.22,8.19-4.82,12.29-.21.54-.45.76-1.08.76-5.89-.03-11.77-.02-17.66-.02h-.88c.91-2.06,1.77-4.01,2.62-5.95,5.94-13.5,11.88-27.01,17.83-40.51,2.74-6.25,5.5-12.49,8.23-18.75.2-.46.43-.62.94-.61,6.78.01,13.57.01,20.35,0,.47,0,.66.19.83.58,3.65,8.32,7.31,16.62,10.97,24.93,4.2,9.56,8.42,19.11,12.62,28.66,1.65,3.74,3.28,7.48,4.92,11.22.05.11.09.23.16.41-.26.01-.46.03-.66.03Zm78.73,0c-6.95,0-13.91,0-20.86,0-.5,0-.8-.15-1.09-.55-5.07-7.04-10.14-14.07-15.22-21.09-.12-.17-.26-.33-.41-.52-1.78,2.46-3.53,4.87-5.27,7.29-3.48,4.81-6.97,9.63-10.44,14.45-.2.29-.4.42-.77.42-7.08,0-14.16,0-21.24,0-.14,0-.28-.01-.54-.02,1.03-1.25,1.98-2.42,2.94-3.58,6.55-7.95,13.11-15.91,19.66-23.87,1.64-1.98,3.28-3.98,4.93-5.95.3-.36.32-.59.02-.97-3.79-4.69-7.56-9.39-11.34-14.09-4.55-5.66-9.1-11.33-13.65-16.99-.07-.08-.13-.16-.26-.31.31-.02.51-.03.71-.03,6.63-.01,13.26,0,19.9-.02.68-.01,1.07.21,1.45.76,4.33,6.17,8.69,12.32,13.05,18.47.27.38.54.75.86,1.2.4-.56.78-1.07,1.15-1.59,4.32-6.12,8.65-12.24,12.99-18.35.17-.24.53-.46.81-.46,6.86-.02,13.73-.02,20.6,0,.1,0,.2.02.4.05-8.56,10.65-17.07,21.24-25.59,31.84,9.3,11.3,18.57,22.55,27.91,33.89-.3.01-.5.03-.7.03Zm-128.06-25.6h20.55c-3.42-8.62-6.82-17.2-10.28-25.93-3.46,8.75-6.85,17.31-10.27,25.93Z"/>
</svg>