<?xml version="1.0" encoding="UTF-8"?>
<svg id="Calque_1" data-name="Calque 1" xmlns="http://www.w3.org/2000/svg" viewBox="0 0 400 400">
  <defs>
    <style>
      .cls-1 {
        fill: #fff;
        stroke-width: 0px;
      }
    </style>
  </defs>
  <path class="cls-1" d="m329.57,128.79l-35.65,20.59-25.93,14.97-22.36,12.91-41.01,23.68,41.06,23.71,22.31,12.88,25.98,15,35.64,20.58c.68-1.74,1.06-3.61,1.06-5.54v-133.16c0-1.95-.39-3.86-1.1-5.62Zm-35.75,68.21h-7.99v7.99h7.99v3.82h-7.99v7.99h-3.82v-7.99h-8.56v7.99h-3.82v-7.99h-8v-3.82h8v-7.99h-8v-3.82h8v-7.99h3.82v7.99h8.56v-7.99h3.82v7.99h7.99v3.82Zm-20.37,7.99h8.56v-7.99h-8.56v7.99Zm-5.46,32.54l-22.31-12.88c-8.2,14.18-23.53,23.74-41.06,23.74-26.13,0-47.39-21.26-47.39-47.4s21.26-47.39,47.39-47.39c17.5,0,32.81,9.52,41.01,23.66l22.36-12.91,25.93-14.97c-17.86-30.79-51.2-51.55-89.3-51.55-56.88,0-103.16,46.28-103.16,103.16s46.28,103.17,103.16,103.17c38.13,0,71.49-20.79,89.35-51.63l-25.98-15ZM339.23,6.49H60.74C28.19,6.49,1.52,33.14,1.52,65.72v268.56c0,32.57,26.66,59.23,59.22,59.23h278.48c32.58,0,59.25-26.66,59.25-59.23V65.72c0-32.58-26.67-59.23-59.25-59.23Zm-9.73,266.92c-1.24,2.96-3.43,5.5-6.3,7.16l-115.04,66.57c-4.63,2.69-10.34,2.69-14.97,0l-115.03-66.57c-4.63-2.68-7.49-7.64-7.49-13v-133.16c0-5.36,2.86-10.31,7.49-12.99l115.03-66.58c4.63-2.68,10.34-2.68,14.97,0l115.04,66.58c2.84,1.65,5.01,4.15,6.26,7.07.04.1.08.2.12.3l-35.65,20.59c-17.86-30.79-51.2-51.55-89.3-51.55-56.88,0-103.16,46.28-103.16,103.16s46.28,103.17,103.16,103.17c38.13,0,71.49-20.79,89.35-51.63l35.64,20.58c-.04.1-.08.2-.12.3Zm-35.67-68.42v3.82h-7.99v7.99h-3.82v-7.99h-8.56v7.99h-3.82v-7.99h-8v-3.82h8v-7.99h-8v-3.82h8v-7.99h3.82v7.99h8.56v-7.99h3.82v7.99h7.99v3.82h-7.99v7.99h7.99Zm-48.14,19.66c-8.2,14.18-23.53,23.74-41.06,23.74-26.13,0-47.39-21.26-47.39-47.4s21.26-47.39,47.39-47.39c17.5,0,32.81,9.52,41.01,23.66l-41.01,23.68,41.06,23.71Zm27.77-19.66h8.56v-7.99h-8.56v7.99Zm-5.46,32.54l-22.31-12.88c-8.2,14.18-23.53,23.74-41.06,23.74-26.13,0-47.39-21.26-47.39-47.4s21.26-47.39,47.39-47.39c17.5,0,32.81,9.52,41.01,23.66l22.36-12.91,25.93-14.97c-17.86-30.79-51.2-51.55-89.3-51.55-56.88,0-103.16,46.28-103.16,103.16s46.28,103.17,103.16,103.17c38.13,0,71.49-20.79,89.35-51.63l-25.98-15Z"/>
</svg>