<?xml version="1.0" encoding="UTF-8"?>
<svg id="Calque_1" data-name="Calque 1" xmlns="http://www.w3.org/2000/svg" viewBox="0 0 400 400">
  <defs>
    <style>
      .cls-1 {
        fill: #fff;
        stroke-width: 0px;
      }
    </style>
  </defs>
  <path class="cls-1" d="m119.4,138.41c-1.02-11.22-2-21.93-3-32.94h167.03c-.94,10.8-1.86,21.39-2.8,31.98-2.4,27-4.8,54-7.22,81-1.59,17.76-3.26,35.52-4.72,53.3-.23,2.75-1.35,3.76-3.86,4.44-20.57,5.61-41.1,11.38-61.67,16.98-1.79.49-3.95.54-5.72.05-20.96-5.79-41.87-11.76-62.83-17.56-2.45-.68-3.32-1.94-3.52-4.34-1.33-16.09-2.75-32.18-4.19-48.79h33.41c.71,7.72,1.47,15.24,2.03,22.77.21,2.85,1.18,4.36,4.2,5.11,10.07,2.48,20.04,5.42,30.11,7.94,2.19.55,4.75.54,6.94-.02,10.07-2.54,20.04-5.44,30.09-8.05,2.52-.65,3.6-1.73,3.81-4.46.95-12.47,2.17-24.91,3.27-37.36.05-.66-.06-1.34-.13-2.47h-109.26c-7.34,0-6.01.32-6.53-5.92-.74-8.93-1.59-17.85-2.44-27.27h121.44c1.01-11.56,1.98-22.69,3-34.39h-127.44Z"/>
  <path class="cls-1" d="m339.23,6.49H60.76C28.18,6.49,1.53,33.14,1.53,65.72v268.56c0,32.57,26.65,59.23,59.23,59.23h278.48c32.58,0,59.24-26.66,59.24-59.23V65.72c0-32.58-26.66-59.23-59.24-59.23Zm-7.86,64.68c-3.32,37.49-6.65,74.97-10,112.46-3.53,39.44-7.09,78.88-10.63,118.32-.47,5.31-.95,10.63-1.26,15.95-.16,2.56-1.05,3.93-3.73,4.66-34.5,9.45-68.95,19.04-103.44,28.52-1.39.38-3.08.35-4.48-.04-34.61-9.52-69.2-19.17-103.84-28.63-2.69-.73-3.19-2.19-3.38-4.42-1.75-20.01-3.5-40.01-5.28-60.01-2.7-30.35-5.42-60.7-8.12-91.06-2.36-26.57-4.71-53.15-7.06-79.72-1.09-12.31-2.18-24.61-3.31-37.4h266.31c-.6,7.24-1.15,14.31-1.78,21.37Z"/>
</svg>