<?xml version="1.0" encoding="UTF-8"?>
<svg id="Calque_1" data-name="Calque 1" xmlns="http://www.w3.org/2000/svg" viewBox="0 0 400 400">
  <defs>
    <style>
      .cls-1 {
        fill: #fff;
        stroke-width: 0px;
      }
    </style>
  </defs>
  <path class="cls-1" d="m339.23,6.49H60.75C28.17,6.49,1.52,33.14,1.52,65.72v268.56c0,32.57,26.65,59.23,59.23,59.23h278.48c32.58,0,59.24-26.66,59.24-59.23V65.72c0-32.58-26.66-59.23-59.24-59.23Zm7.77,196.1c-1.59,6.99-6.52,11.61-11.33,16.4-38.91,38.84-77.79,77.72-116.63,116.64-4.8,4.81-9.42,9.73-16.4,11.32h-4.61c-6.84-1.5-11.59-6.03-16.2-10.9-4.05-4.27-8.38-8.27-12.54-12.43-36.39-36.37-72.77-72.74-109.13-109.14-9.6-9.6-9.53-20.22.11-29.86,27.95-27.97,55.91-55.93,83.88-83.89.7-.7,1.48-1.31,2.22-1.95.5.31.87.45,1.13.71,10.15,10.12,20.34,20.2,30.36,30.45.85.88,1.03,2.98.72,4.32-2.32,10.14,1.36,19.94,10.15,25.18,2.56,1.52,3.05,3.18,3.04,5.83-.08,23.93-.12,47.86.03,71.79.02,3.19-.85,4.97-3.61,6.68-8.53,5.29-12.16,15.36-9.49,25.05,2.6,9.44,11.2,16.12,21.22,16.49,9.79.37,18.78-5.84,22.11-15.26,3.27-9.27.14-19.85-7.96-25.57-2.39-1.69-3.27-3.4-3.26-6.26.1-23.42.06-46.84.07-70.26,0-1.21.14-2.42.26-4.37,1.46,1.34,2.4,2.13,3.27,3,6.44,6.42,12.67,13.05,19.35,19.2,4.41,4.07,6.66,7.79,5.67,14.52-1.87,12.68,9.8,24.22,22.69,23.96,13.47-.27,23.64-12.14,22.13-25.83-1.39-12.64-13.98-21.85-26.54-19.26-2.54.52-4.24-.04-6.06-1.9-7.95-8.15-15.93-16.29-24.18-24.13-3.54-3.36-6.34-6.46-4.14-11.67.31-.76.1-1.78.01-2.67-1.53-15.49-15.66-23.63-27.56-20.9-1.35.31-3.48-.41-4.51-1.41-9.98-9.74-19.8-19.64-29.66-29.51-.52-.53-.96-1.14-1.51-1.79.37-.52.6-.97.94-1.32,8.5-8.51,16.9-17.12,25.59-25.44,2.13-2.03,5.02-3.62,7.85-4.5,8.11-2.5,14.59.66,20.34,6.43,40.22,40.32,80.49,80.59,120.81,120.8,4.93,4.91,9.79,9.74,11.37,16.85v4.6Z"/>
</svg>