<?xml version="1.0" encoding="UTF-8"?>
<svg id="Calque_1" data-name="Calque 1" xmlns="http://www.w3.org/2000/svg" viewBox="0 0 400 400">
  <defs>
    <style>
      .cls-1 {
        fill: #fff;
        stroke-width: 0px;
      }
    </style>
  </defs>
  <path class="cls-1" d="m339.23,6.49H60.76C28.17,6.49,1.53,33.14,1.53,65.72v268.56c0,32.57,26.65,59.23,59.23,59.23h278.48c32.58,0,59.24-26.66,59.24-59.23V65.72c0-32.58-26.66-59.23-59.24-59.23Zm19.59,207.99c-.8,5.68-1.42,11.38-2.44,17.01-6.98,38.69-26.61,69.81-56.92,94.43-13.59,11.04-28.98,18.88-45.46,24.64-7,2.45-11.7-.94-11.75-8.53-.1-14.23.14-28.47-.17-42.69-.28-12.96-1.98-16.99-9.86-27.09,5.13-.9,10.14-1.62,15.08-2.67,15.33-3.25,29.09-9.53,39.65-21.51,6.76-7.66,10.4-16.94,12.73-26.74,3.02-12.67,4.01-25.46,1.68-38.37-1.83-10.15-6.27-19.08-13.01-26.85-1.15-1.33-1.64-2.42-.99-4.26,4.51-12.72,2.85-25.2-1.86-37.47-.31-.81-1.72-1.57-2.69-1.69-5.27-.6-10.28.75-14.93,2.97-7.71,3.68-15.27,7.67-22.78,11.74-1.8.97-3.33,1.43-5.34.91-24-6.19-48.01-6.15-72.05-.09-1.51.38-3.63-.01-4.96-.85-9.94-6.28-20.38-11.38-31.83-14.26-.09-.03-.18-.08-.28-.1-6.95-1.57-8.53-.6-10.47,6.13-3.21,11.11-3.75,22.17.03,33.29.32.93-.15,2.54-.84,3.34-6.98,8.15-11.85,17.41-13.28,28.03-2.97,22.01-.2,43.08,12.64,61.86,6.67,9.75,16.45,15.82,27.34,19.63,7.91,2.78,16.32,4.16,24.51,6.12,1.45.35,2.96.46,4.03.62-2.28,4.17-4.63,8.31-6.81,12.55-.67,1.31-1.15,2.87-1.2,4.33-.13,3.54-2.18,5.08-5.27,5.88-8.37,2.16-16.77,3.73-25.16.24-6.48-2.7-11.17-7.51-14.66-13.47-4.57-7.78-10.83-13.6-19.52-16.21-2.96-.89-6.33-.87-9.46-.6-2.82.26-3.28,1.63-1.61,3.86,1.24,1.67,2.65,3.45,4.41,4.47,8.12,4.7,12.71,12.16,16.43,20.34,2.21,4.86,4.14,9.79,8.24,13.55,6.38,5.85,14.15,8.11,22.41,8.55,7.41.4,14.86-.05,22.73-.13.02.16.18,1.11.19,2.07.09,8.17.19,16.35.22,24.52.02,7.52-4.96,11.05-12.08,8.55-43.85-15.43-74.54-45.07-93.08-87.33-9.69-22.07-12.91-45.51-11.42-69.47,2.17-34.74,14.82-65.43,37.62-91.68,22.28-25.66,50.18-42.35,83.42-49.78,16.75-3.74,33.7-4.5,50.81-2.67,35.84,3.84,66.52,18.68,92.04,43.81,23.24,22.88,37.98,50.57,43.57,82.88.94,5.44,1.61,10.93,2.4,16.39v21.8Z"/>
</svg>