<?xml version="1.0" encoding="UTF-8"?>
<svg id="Calque_1" data-name="Calque 1" xmlns="http://www.w3.org/2000/svg" viewBox="0 0 400 400">
  <defs>
    <style>
      .cls-1 {
        fill: #fff;
        stroke-width: 0px;
      }
    </style>
  </defs>
  <path class="cls-1" d="m126.99,116.03c-.22-3.32.72-4.13,3.89-4.13,46.31.03,92.61-.05,138.91-.09,1.11,0,2.22.16,4,.3-.51,7.63-.8,15.09-1.53,22.52-.99,9.99-1.14,9.99-11.17,9.98-31.53-.05-63.06-.1-94.59-.15-1.68-.01-3.35,0-5.58,0,.79,10.58,1.55,20.7,2.35,31.49,2.05,0,3.83.01,5.62,0,31.81-.05,63.63-.03,95.44-.24,4.19-.03,4.94,1.39,4.66,5.2-1.22,16.98-2.19,33.98-3.23,50.97-.66,10.77-1.34,21.53-1.86,32.31-.15,3.1-1.31,4.71-4.41,5.71-18.77,6.01-37.46,12.29-56.22,18.32-1.87.6-4.25.67-6.11.07-19.04-6.12-38.02-12.44-57.03-18.66-2.14-.7-3.83-1.42-4-4.15-.84-13.03-1.83-26.05-2.74-39.08-.04-.53.12-1.08.28-2.28h20.33c11.89,0,11.85,0,12.69,12.02.67,9.41-1.03,7.21,7.93,10.41,7.48,2.68,15.01,5.24,22.56,7.7,1.36.45,3.1.59,4.43.15,9.16-3.01,18.29-6.14,27.35-9.44,1.34-.48,3.17-1.96,3.27-3.12,1-10.85,1.67-21.73,2.48-33.21h-102.23c-.84-13.56-1.66-26.3-2.4-39.04-1.03-17.85-1.92-35.72-3.09-53.56Z"/>
  <path class="cls-1" d="m339.23,6.43H60.76C28.18,6.43,1.53,33.08,1.53,65.66v268.56c0,32.57,26.65,59.23,59.23,59.23h278.48c32.58,0,59.24-26.66,59.24-59.23V65.66c0-32.58-26.66-59.23-59.24-59.23Zm-5.05,59c-2.76,31.67-5.51,63.34-8.31,95-2.66,29.97-5.4,59.93-8.06,89.9-1.93,21.77-3.86,43.55-5.62,65.33-.26,3.17-1.32,4.72-4.44,5.6-34.83,9.8-69.61,19.76-104.44,29.55-2.06.58-4.56.66-6.6.08-34.96-9.84-69.88-19.84-104.83-29.7-2.93-.83-4.01-2.21-4.28-5.26-3.29-38.17-6.76-76.33-10.12-114.5-2.97-33.79-5.85-67.59-8.79-101.38-1.36-15.69-2.79-31.38-4.16-47.07-.12-1.38,0-2.77,0-4.39h271c-.45,5.69-.85,11.27-1.34,16.84Z"/>
</svg>