<?xml version="1.0" encoding="UTF-8"?>
<svg id="Calque_1" data-name="Calque 1" xmlns="http://www.w3.org/2000/svg" viewBox="0 0 400 400">
  <defs>
    <style>
      .cls-1 {
        fill: #fff;
        stroke-width: 0px;
      }
    </style>
  </defs>
  <path class="cls-1" d="m166.42,141.12c4.57,17.1,14.2,46.23,19.02,62.13h-38.05c6.27-19.51,14.93-45.99,18.78-62.13h.25Z"/>
  <path class="cls-1" d="m339.24,6.49H60.76C28.18,6.49,1.53,33.14,1.53,65.72v268.56c0,32.57,26.65,59.23,59.23,59.23h278.48c32.58,0,59.24-26.66,59.24-59.23V65.72c0-32.58-26.66-59.23-59.24-59.23Zm-98.66,264.42h-31.3c-1.45,0-2.17-.49-2.65-1.69l-12.28-35.88h-55.62l-11.56,35.64c-.48,1.2-1.21,1.93-2.65,1.93h-27.93c-1.69,0-2.17-.97-1.93-2.41l48.16-138.93c.96-2.65,1.93-5.54,2.41-14.69,0-.97.72-1.69,1.44-1.69h38.53c1.2,0,1.68.24,1.92,1.45l54.66,154.1c.48,1.2.24,2.17-1.2,2.17Zm50.8-2.17c0,1.44-.24,2.17-2.17,2.17h-28.89c-1.69,0-2.41-.73-2.41-2.17v-115.58c0-1.2.48-1.92,1.93-1.92h29.61c1.45,0,1.93.48,1.93,1.92v115.58Zm-16.62-130.26c-11.31,0-18.53-7.47-18.53-18.79s7.94-18.54,18.78-18.54c11.55,0,18.54,7.71,18.54,18.54s-7.47,18.79-18.79,18.79Z"/>
</svg>