<?xml version="1.0" encoding="UTF-8"?>
<svg id="Calque_1" data-name="Calque 1" xmlns="http://www.w3.org/2000/svg" viewBox="0 0 400 400">
  <defs>
    <style>
      .cls-1 {
        fill: #fff;
        stroke-width: 0px;
      }
    </style>
  </defs>
  <path class="cls-1" d="m339.23,6.49H60.75C28.19,6.49,1.53,33.14,1.53,65.72v268.56c0,32.57,26.66,59.23,59.22,59.23h278.48c32.58,0,59.25-26.66,59.25-59.23V65.72c0-32.58-26.67-59.23-59.25-59.23Zm-88.27,299.09c0,8.32-.95,16.49-4.49,24.16-5.26,11.39-14.35,18.07-26.36,20.82-12,2.75-23.92,2.37-35.46-2.31-11-4.46-18.7-12.48-23.91-23.02-.1-.22-.16-.47-.28-.82,8.17-4.94,16.32-9.87,24.58-14.87.83,1.4,1.59,2.71,2.39,4.01,1.98,3.23,4.06,6.43,7.29,8.54,6.19,4.05,12.76,4.01,19.21.88,4.06-1.97,5.5-6.01,6.13-10.22.39-2.61.55-5.28.55-7.93.04-33.06.03-66.13.03-99.19v-2.19h30.24c.03.67.08,1.27.08,1.87.01,33.42.01,66.84,0,100.27Zm116.44,24.95c-5.3,9.3-13.48,15-23.43,18.33-9.94,3.32-20.16,3.94-30.53,2.82-11.06-1.2-21.26-4.68-30.26-11.37-6.41-4.76-11.45-10.71-15.25-17.72-.22-.4-.39-.81-.67-1.39,5.66-3.28,11.17-6.47,16.68-9.66,2.29-1.33,4.61-2.63,6.87-4.01.87-.53,1.31-.35,1.82.47,2.33,3.75,5,7.24,8.42,10.05,9.17,7.53,19.55,8.95,30.65,5.57,4.79-1.46,8.58-4.52,9.89-9.61,1.51-5.84.04-11.03-4.86-14.75-2.66-2.02-5.61-3.75-8.63-5.17-7.6-3.58-15.39-6.79-22.98-10.39-7.24-3.43-13.86-7.82-19.18-13.94-5.89-6.76-8.77-14.73-9.47-23.56-.61-7.76.3-15.29,3.84-22.33,5.05-10.05,13.2-16.5,23.79-19.78,11.68-3.63,23.47-3.46,35.08.3,10.96,3.54,18.54,11.18,24.15,20.97.07.13.08.29.17.59-7.77,4.99-15.56,9.99-23.39,15.02-1.1-1.64-2.08-3.19-3.15-4.67-5.51-7.64-13.71-9.64-21.5-7.44-11.25,3.16-11.27,16.35-5.66,21.64,2.02,1.89,4.35,3.61,6.82,4.84,5.61,2.78,11.39,5.22,17.12,7.77,8.26,3.67,16.36,7.62,23.47,13.33,9.86,7.91,14.7,18.24,15.19,30.78.32,8.22-.88,16.08-5,23.31Z"/>
</svg>