<?xml version="1.0" encoding="UTF-8"?>
<svg id="Calque_1" data-name="Calque 1" xmlns="http://www.w3.org/2000/svg" viewBox="0 0 400 400">
  <defs>
    <style>
      .cls-1 {
        fill: #fff;
        stroke-width: 0px;
      }
    </style>
  </defs>
  <path class="cls-1" d="m200,0C89.54,0,0,89.54,0,200s89.55,200,200,200,200-89.54,200-200S310.46,0,200,0Zm103.74,205.23c4.06,0,8.02,0,11.97,0,6.54-.01,5.61-.4,5.66,5.66.02,2.71-.11,2.82-2.83,2.82h-14.8v-8.48Zm0,21.57c2.97,0,5.84-.09,8.69.07.55.03,1.43.97,1.5,1.56.2,1.71.22,3.47,0,5.17-.08.62-1.02,1.57-1.62,1.61-2.79.17-5.61.07-8.56.07v-8.48Zm-25.2-21.18c.26-.09.44-.22.6-.2,1.67.19,3.33.4,4.99.6.06,2.22.18,4.43.11,6.65-.01.36-.86.94-1.36.99-1.38.13-2.79.04-4.34.04v-8.08Zm-189.95-19.16h5.37c3.47,0,6.93,0,10.4,0,2.62.01,2.76.15,2.77,2.68,0,1.35-.03,2.7,0,4.05.03,1.15-.57,1.69-1.62,1.7-5.58.02-11.16,0-16.93,0v-8.45Zm18.53,32.97c-.1,1.61-.63,2.38-2.3,2.3-1.35-.07-2.7-.06-4.05-.01-1.57.06-2.12-.68-2.22-2.21-.09-1.53-.09-3.31-.88-4.47-.67-.99-2.41-1.25-3.99-1.97v-7.67c3.71-.5,6.62.03,9.63,2.83,3.56,3.31,4.09,6.91,3.81,11.2Zm-28.39-45.58v-26.63c0-3.47.01-3.47,3.37-3.47h4.94v51.06c-2.57-.19-8.29-6.13-8.3-8.42-.03-4.18-.01-8.36-.01-12.54Zm13.36,82.72c-3.52.27-6.5.32-9.36-2.62-2.93-3.02-4.23-5.94-4.09-10.15.3-9.51.13-19.04.06-28.56-.01-2.06.4-3.79,2.1-5.09.56-.42,1.1-.92,1.49-1.5,2.39-3.41,5.74-3.98,9.73-3.19v8.16c-.5.03-.99.07-1.49.09-1.99.09-3.33,1.41-3.33,3.43-.02,9.2-.02,18.4,0,27.6,0,2.03,1.4,3.39,3.48,3.5.43.02.87.09,1.41.15v8.18Zm8.74-.64c-.4.36-1.01.64-1.54.66-1.84.08-3.68.04-5.62.04v-8.17c1.09-.2,2.25-.16,3.15-.62,1.57-.82,1.88-2.34,1.81-4.09-.13-3.44-.04-3.45,3.34-3.45.96,0,1.93.06,2.89,0,1.55-.11,2.29.55,2.23,2.11-.01.19-.04.39,0,.58,1.43,6.01-2.4,9.5-6.26,12.95Zm16.44-110.79c.09-.62,1.01-1.46,1.67-1.59,1.3-.26,2.68-.08,4.27-.08v8.42c-1.55,0-3.08.13-4.57-.07-.54-.08-1.31-.93-1.37-1.49-.19-1.72-.22-3.48,0-5.19Zm-.08,44.15c-.02-2.72.25-2.96,2.94-2.97h3.17v8.36c-7.02.19-6.05.56-6.11-5.39Zm13.22,46.31h-4.62c0,.86.01,1.54,0,2.22-.04,5.59-.12,11.17-.1,16.76,0,1.49-.56,2.14-2.02,2.11-1.29-.02-2.58-.06-3.86.02-1.8.11-2.55-.6-2.5-2.47.09-3.78.02-7.58.02-11.37v-34.69c0-2.73.23-2.94,2.98-2.95,6.24,0,5.31-.38,5.35,5.36.03,4.75,0,9.51,0,14.26v2.24h4.75v8.51Zm-5.58-40.85v-51.27c4.59,0,9.07-.06,13.55.08.54,0,1.4,1.05,1.49,1.71.22,1.57.05,3.2.08,4.81.03,1.33-.64,1.84-1.9,1.83-1.65-.03-3.31,0-5.13,0v34.42h5.06c1.33,0,2.03.55,1.98,1.98-.06,1.54-.03,3.08,0,4.63.02,1.16-.44,1.82-1.68,1.82-4.43-.01-8.86,0-13.44,0Zm20.86,50.77c0,3.02-.05,6.04.02,9.06.04,1.5-.59,2.13-2.03,2.11-1.35-.01-2.7-.04-4.05,0-1.72.07-2.41-.69-2.39-2.42.06-5.4.02-10.8.02-16.2v-2.38h-5.35v-8.47h5.29c0-.82-.01-1.49,0-2.17.02-5.72.04-11.43.06-17.15,0-2.26.42-2.66,2.72-2.67,1.09,0,2.18.04,3.27,0,1.8-.09,2.48.65,2.47,2.5-.06,12.6-.03,25.19-.03,37.79Zm5.37-52.48c0-.38,0-.77,0-1.15v-45.35c0-2.71.21-2.93,3-2.92,6.54.03,4.83-.63,7.31,4.84,2.01,4.45,3.92,8.93,5.73,13.46.37.95.4,2.27.07,3.23-1.03,2.96-2.32,5.83-3.68,9.18-1.32-2.56-2.44-4.7-3.55-6.85-.13-.01-.27-.01-.4-.02v1.67c0,7.66,0,15.31-.01,22.97,0,2.42-.27,2.68-2.62,2.69-1.35,0-2.7-.01-4.05,0-1.2.01-1.78-.57-1.79-1.76Zm19.73,46.79v8.52c-1.64,0-3.23.06-4.82-.02-1.12-.06-1.58.37-1.78,1.47-.29,1.7-.79,3.37-1.14,5.06-.27,1.28-1,1.86-2.29,1.84-1.54-.03-3.09.03-4.63-.02-1.82-.05-2.22-.61-1.78-2.47,2.17-9.16,4.36-18.31,6.55-27.47,1.46-6.11,2.93-12.21,4.4-18.31.81-3.34,1.32-3.63,5.32-3.03,1.67,11.76-.85,23.05-4.17,34.43h4.34Zm-3.26-60.94c-1.61.11-2.38-.78-2.79-2.09-.2-.6-.27-1.39-.04-1.96,3.93-9.81,7.94-19.6,11.88-29.42.54-1.36,1.4-1.87,2.78-1.82,1.22.05,2.44,0,3.67.02,2.26.02,2.59.33,2.59,2.55.02,4.76.01,9.52.01,14.28v31.43c0,2.79-.14,2.91-2.96,2.92q-5.37.01-5.37-5.43v-22.36c-.14-.04-.28-.09-.42-.13-1.7,3.35-3.56,6.63-5.05,10.07-.95,2.2-2.6,1.82-4.3,1.94Zm18.32,77.8c-6.7-.02-5.22.6-6.84-5.36-.11-.37-.2-.75-.24-1.13-.12-1.51-.88-2.05-2.4-1.88-1.26.14-2.54.03-3.96.03v-8.51c1.25-.06,2.44-.12,4.16-.21-4.34-11.18-4.92-22.61-4.03-34.19,3.62-.6,3.98-.36,4.84,3.16l10.95,44.82c.73,2.95.49,3.28-2.48,3.27Zm21.48-43.07c-.94.07-1.81.13-2.83.21v15.36c.94.12,1.82.24,2.83.38v8.27c-.85.05-1.65.1-2.67.17-.04.71-.11,1.38-.11,2.06-.01,4.69,0,9.38-.01,14.07,0,2.22-.35,2.55-2.6,2.55-6.77-.03-5.83.69-5.84-5.84-.04-14.26-.02-28.53,0-42.79,0-2.64.2-2.82,2.87-2.82,2.75,0,5.5,0,8.37,0v8.39Zm-1.43-27.12c-.55.05-1.31.68-1.49,1.21-.53,1.58-.9,3.21-1.18,4.85-.3,1.73-1.2,2.4-2.92,2.26-1.28-.11-2.57,0-3.86-.03-2.06-.02-2.48-.54-2-2.59.98-4.11,1.98-8.22,2.96-12.33,2.63-11.03,5.24-22.06,7.87-33.09.82-3.42.84-3.42,4.36-3.38.38,0,.76,0,1.12,0,1.68,11.85-.91,23.1-4.2,34.45h4.4v8.59c-1.78,0-3.44-.11-5.06.06Zm16.09,70.19c-6.96-.02-5.46.63-6.71-5.48-.77-3.77-1.45-7.57-1.95-11.38-.21-1.63-.86-2.09-2.33-1.92-.69.08-1.38.02-2.24.02v-8.48c1.07,0,2.07.01,3.08,0,2.34-.02,3.7-1.34,3.72-3.65.02-2.77.01-5.53,0-8.3,0-2.36-1.44-3.77-3.81-3.79h-2.96v-8.42c2.47,0,4.9-.1,7.3.06.74.04,1.54.64,2.12,1.19q5.8,5.44,5.79,13.36c0,2.9-.07,5.79.02,8.68.05,1.61-.37,2.91-1.64,3.9-1.18.91-1.49,1.93-1.19,3.49,1.17,5.92,2.14,11.87,3.18,17.81.42,2.43.03,2.91-2.38,2.91Zm4.42-61.9c-1.29,0-2.58-.08-3.86.03-1.72.14-2.44-.71-2.74-2.26-.32-1.63-.66-3.28-1.2-4.85-.17-.53-.93-1.15-1.49-1.22-1.45-.17-2.94-.05-4.61-.05v-8.55h4.18c-4.39-11.26-4.91-22.65-4.05-34.21,3.19-.88,4-.45,4.78,2.73,3.71,15.2,7.41,30.4,11.11,45.61.57,2.33.23,2.76-2.12,2.77Zm14.63,61.9c-2.25,0-4.17-.06-6.1.02-1.86.08-2.43-.73-2.42-2.54.05-13.75.03-27.51.03-41.27,0-1.8.06-3.6-.02-5.39-.08-1.71.73-2.32,2.31-2.28,1.22.04,2.45.06,3.66-.01,1.8-.09,2.52.65,2.51,2.5-.06,10.67-.04,21.34-.03,32.02.01,4.94.04,9.89.06,14.84.01.63,0,1.26,0,2.11Zm14.38-1.72c-.07.61-.9,1.59-1.41,1.61-3.84.14-7.68.07-11.63.07v-8.37c3.96,0,7.8-.07,11.63.07.51.02,1.33,1.01,1.41,1.63.2,1.64.2,3.35,0,4.99Zm21.42,1.59c-4.61,0-9.1.05-13.58-.07-.57,0-1.12-.92-1.66-1.43-.07-.07-.03-.25-.03-.38.06-7.27-.88-6.46,5.67-6.45.37,0,.75-.07,1.33-.12v-34.14c-1.55-.08-3.25-.25-4.94-.24-1.53.02-2.07-.75-2.06-2.13.04-7.21-.78-6.15,5.87-6.21,3.08-.03,6.16,0,9.4,0v51.18Zm1.6-.21c0-2.35,0-4.59.01-6.83,0-.38.04-.75.09-1.45,1.59.08,3.16.06,4.7.29.44.06.93.8,1.11,1.32.21.58.12,1.26.1,1.9-.12,5.14,1.23,5.36-6.01,4.77Zm23.8.28c-2.32,0-4.55.05-6.78-.02-1.37-.04-1.54-1.05-1.54-2.19.02-5.46,0-10.92,0-16.39v-30.08c0-2.31.37-2.69,2.66-2.71,1.84-.02,3.69,0,5.65,0v51.4Zm19.15-2.05c.03,1.36-.57,2-1.95,1.99-5.19-.02-10.38,0-15.78,0v-8.47h5.97c3.14,0,6.29.01,9.43-.01,1.55,0,2.43.56,2.34,2.27-.07,1.4-.04,2.82,0,4.23Z"/>
</svg>