<?xml version="1.0" encoding="UTF-8"?>
<svg id="Calque_1" data-name="Calque 1" xmlns="http://www.w3.org/2000/svg" viewBox="0 0 400 400">
  <defs>
    <style>
      .cls-1 {
        fill: #fff;
        stroke-width: 0px;
      }
    </style>
  </defs>
  <path class="cls-1" d="m339.23,6.49H60.76C28.18,6.49,1.53,33.14,1.53,65.72v268.56c0,32.57,26.65,59.23,59.23,59.23h278.48c32.58,0,59.24-26.66,59.24-59.23V65.72c0-32.58-26.66-59.23-59.24-59.23Zm-107.37,234.61h-34.79l-23.8-90.16v90.16h-29.96V103.53h43.6l27.56,108.88,27.56-108.88h43.59v137.57h-29.96v-90.16l-23.8,90.16Zm134.94,110.6H78.43c-8.81,0-15.95-7.15-15.95-15.96v-24.7l-28.03,16.84c-.54.33-1.25-.07-1.25-.71V81.66c0-1.21.65-2.34,1.69-2.95l52.07-30.41v248.02h255.03v-.52h.14V103.68h24.68v248.02Z"/>
  <path class="cls-1" d="m324.48,48.3H86.96v248.02h255.03V65.81c0-9.67-7.83-17.51-17.5-17.51Zm-38.86,192.8h-29.96v-90.16l-23.8,90.16h-34.79l-23.8-90.16v90.16h-29.96V103.53h43.6l27.56,108.88,27.56-108.88h43.59v137.57Z"/>
</svg>