<?xml version="1.0" encoding="UTF-8"?>
<svg id="Calque_1" data-name="Calque 1" xmlns="http://www.w3.org/2000/svg" viewBox="0 0 400 400">
  <defs>
    <style>
      .cls-1, .cls-2 {
        fill: #fff;
        stroke-width: 0px;
      }

      .cls-2 {
        opacity: .56;
      }
    </style>
  </defs>
  <path class="cls-1" d="m208.67,211.65l-7.94-4.58c-.2-.12-.45-.12-.65,0l-7.94,4.58c-.2.12-.33.33-.33.56v9.17c0,.23.13.45.33.57l7.94,4.58c.2.12.45.12.65,0l7.94-4.58c.2-.12.32-.34.32-.57v-9.17c0-.23-.12-.44-.32-.56Zm0,0l-7.94-4.58c-.2-.12-.45-.12-.65,0l-7.94,4.58c-.2.12-.33.33-.33.56v9.17c0,.23.13.45.33.57l7.94,4.58c.2.12.45.12.65,0l7.94-4.58c.2-.12.32-.34.32-.57v-9.17c0-.23-.12-.44-.32-.56Zm0,0l-7.94-4.58c-.2-.12-.45-.12-.65,0l-7.94,4.58c-.2.12-.33.33-.33.56v9.17c0,.23.13.45.33.57l7.94,4.58c.2.12.45.12.65,0l7.94-4.58c.2-.12.32-.34.32-.57v-9.17c0-.23-.12-.44-.32-.56Zm0,0l-7.94-4.58c-.2-.12-.45-.12-.65,0l-7.94,4.58c-.2.12-.33.33-.33.56v9.17c0,.23.13.45.33.57l7.94,4.58c.2.12.45.12.65,0l7.94-4.58c.2-.12.32-.34.32-.57v-9.17c0-.23-.12-.44-.32-.56ZM339.22,6.49H60.74C28.18,6.49,1.53,33.14,1.53,65.72v268.56c0,32.57,26.66,59.23,59.22,59.23h278.48c32.58,0,59.25-26.66,59.25-59.23V65.72c0-32.58-26.67-59.23-59.25-59.23ZM89.57,220.05h-.04v17.07c0,.18,0,.36,0,.53-.08,1.28-1.08,1.85-2.19,1.21-2.97-1.68-5.92-3.39-8.87-5.08-1.33-.76-2.64-1.56-3.98-2.27-1.36-.72-1.97-1.74-1.95-3.31.06-5.12,0-10.23.03-15.35.01-1.43-.53-2.44-1.8-3.13-1.69-.92-3.35-1.9-5-2.89-1.16-.7-2.27-.71-3.44,0-1.66,1.01-3.35,1.99-5.05,2.93-1.22.67-1.77,1.63-1.76,3.02.02,5.22-.01,10.45.02,15.68.01,1.31-.51,2.23-1.64,2.87-4.32,2.47-8.64,4.96-12.96,7.44-.17.1-.35.2-.53.27-.73.29-1.53-.09-1.75-.84-.09-.31-.1-.65-.1-.98-.01-11.43-.01-22.85-.04-34.28-.01-1.39.52-2.33,1.73-3.02,7.37-4.23,14.73-8.48,22.09-12.74,1.14-.66,2.24-.67,3.39-.01,7.37,4.27,14.75,8.53,22.15,12.77,1.18.68,1.7,1.62,1.7,2.98-.03,5.71-.01,11.43-.01,17.14Zm68.58,8.54c0,1.4-.74,2.68-1.95,3.38l-21.47,12.39c-1.2.7-2.69.7-3.89,0l-21.47-12.39c-1.2-.7-1.95-1.98-1.95-3.38v-24.78c0-1.4.75-2.68,1.95-3.38l21.47-12.39c1.2-.7,2.69-.7,3.89,0l21.47,12.39c1.21.7,1.95,1.98,1.95,3.38v24.78Zm67.62,1.87c0,.67-.35,1.29-.93,1.62l-23.49,13.57c-.58.33-1.29.33-1.87,0l-23.5-13.57c-.57-.33-.93-.95-.93-1.62v-27.12c0-.67.36-1.29.93-1.62l23.5-13.57c.58-.33,1.29-.33,1.87,0l6.43,3.72c.6.35,1.36-.09,1.36-.78v-35.54c0-1.12,1.19-1.81,2.15-1.25l13.18,7.73c.81.47,1.3,1.34,1.3,2.28v66.15Zm67.6-21.23c.01,1.24-.54,2.14-1.62,2.76-4.39,2.54-8.77,5.09-13.15,7.64-1.28.74-2.3.15-2.3-1.34-.01-1.94-.02-3.89.01-5.84.01-.77-.27-1.29-.95-1.68-2.2-1.24-4.38-2.5-6.56-3.78-.68-.4-1.29-.42-1.98,0-2.19,1.29-4.4,2.56-6.61,3.82-.68.38-.98.88-.98,1.66.02,2.5.03,5,0,7.5,0,.86.35,1.39,1.08,1.81,7.29,4.16,14.56,8.34,21.84,12.51.21.12.42.24.63.37,1.09.67,1.1,1.83-.01,2.47-1.5.87-3.01,1.69-4.52,2.53-2.88,1.6-5.78,3.18-8.64,4.82-1.2.68-2.3.67-3.5-.02-7.3-4.18-14.61-8.34-21.93-12.48-1.18-.67-1.73-1.59-1.72-2.96.03-4.25.01-8.5.01-12.75s.03-8.46-.01-12.69c-.02-1.39.52-2.34,1.73-3.03,7.39-4.24,14.77-8.5,22.15-12.77,1.13-.65,2.18-.64,3.31.02,7.36,4.29,14.73,8.57,22.11,12.83,1.09.63,1.62,1.52,1.61,2.77v5.84Zm-20.55,4.29v5.23c0,.13-.07.25-.19.32l-4.53,2.62c-.11.06-.26.06-.37,0l-4.53-2.62c-.12-.07-.19-.19-.19-.32v-5.23c0-.14.07-.26.19-.33l4.53-2.61c.11-.07.26-.07.37,0l4.53,2.61c.12.07.19.19.19.33Zm88.67,15.12c0,1.24-.66,2.39-1.73,3.02l-22.16,12.86c-.54.31-1.15.47-1.75.47s-1.2-.16-1.74-.47l-6.95-4.04,1.67-2.87,6.95,4.03s.1.03.15,0l22.16-12.86s.08-.09.08-.14v-25.73c0-.06-.03-.12-.08-.14l-22.16-12.87s-.1-.03-.15,0l-22.16,12.86s-.08.09-.08.15v25.73c0,.05.03.11.08.13l5.6,3.26c.57.33.84.46,1.56.64,1.72.41,3.04.44,4.04.07.15-.05.21-.09.23-.11.02-.02.06-.09.13-.27.35-.86.3-2.1.26-3.3-.02-.41-.03-.83-.03-1.24v-21.89h3.33v21.89c0,.35.01.72.02,1.11.06,1.48.12,3.15-.5,4.68-.14.36-.36.83-.73,1.25-.39.43-.92.77-1.57,1.01-1.66.6-3.55.61-5.96.03-1.08-.26-1.63-.52-2.45-.99l-5.6-3.26c-1.07-.61-1.74-1.77-1.74-3.01v-25.73c0-1.25.67-2.41,1.75-3.03l22.15-12.86c1.07-.62,2.41-.62,3.48,0l22.17,12.87c1.07.62,1.73,1.77,1.73,3.02v25.73Zm-13.39-9.11c-1.21-1.14-3.39-1.73-5.85-1.57-3.18.21-6.46.24-8.55-1.72-1.2-1.12-1.81-2.74-1.81-4.82s.61-3.68,1.79-4.84c2.24-2.18,5.98-2.09,8.72-2.03,5.95.14,9.63,4.18,9.63,7.85h-3.73c0-1.39-1.76-4.03-5.99-4.12-1.95-.05-4.91-.12-6.02.97-.17.16-.67.65-.67,2.17s.47,1.96.63,2.11c.95.89,3.45.86,5.76.71,3.51-.22,6.66.72,8.64,2.58,1.29,1.2,2,2.74,2,4.32,0,4.27-4.08,7.14-10.16,7.14-8.52,0-11.31-6.27-11.31-8.43h3.73s.24,1.18,1.32,2.35c1.06,1.17,2.96,2.35,6.26,2.35,2.39,0,6.43-.72,6.43-3.41,0-.7-.44-1.26-.82-1.61Zm-147.36-12.46c-.2-.12-.45-.12-.65,0l-7.94,4.58c-.2.12-.33.33-.33.56v9.17c0,.23.13.45.33.57l7.94,4.58c.2.12.45.12.65,0l7.94-4.58c.2-.12.32-.34.32-.57v-9.17c0-.23-.12-.44-.32-.56l-7.94-4.58Zm7.94,4.58l-7.94-4.58c-.2-.12-.45-.12-.65,0l-7.94,4.58c-.2.12-.33.33-.33.56v9.17c0,.23.13.45.33.57l7.94,4.58c.2.12.45.12.65,0l7.94-4.58c.2-.12.32-.34.32-.57v-9.17c0-.23-.12-.44-.32-.56Zm0,0l-7.94-4.58c-.2-.12-.45-.12-.65,0l-7.94,4.58c-.2.12-.33.33-.33.56v9.17c0,.23.13.45.33.57l7.94,4.58c.2.12.45.12.65,0l7.94-4.58c.2-.12.32-.34.32-.57v-9.17c0-.23-.12-.44-.32-.56Zm0,0l-7.94-4.58c-.2-.12-.45-.12-.65,0l-7.94,4.58c-.2.12-.33.33-.33.56v9.17c0,.23.13.45.33.57l7.94,4.58c.2.12.45.12.65,0l7.94-4.58c.2-.12.32-.34.32-.57v-9.17c0-.23-.12-.44-.32-.56Zm0,0l-7.94-4.58c-.2-.12-.45-.12-.65,0l-7.94,4.58c-.2.12-.33.33-.33.56v9.17c0,.23.13.45.33.57l7.94,4.58c.2.12.45.12.65,0l7.94-4.58c.2-.12.32-.34.32-.57v-9.17c0-.23-.12-.44-.32-.56Z"/>
  <path class="cls-2" d="m208.99,212.21v9.17c0,.23-.12.45-.32.57l-7.94,4.58c-.2.12-.45.12-.65,0l-7.94-4.58c-.2-.12-.33-.34-.33-.57v-9.17c0-.23.13-.44.33-.56l7.94-4.58c.2-.12.45-.12.65,0l7.94,4.58c.2.12.32.33.32.56Z"/>
</svg>