<?xml version="1.0" encoding="UTF-8"?>
<svg id="Calque_1" data-name="Calque 1" xmlns="http://www.w3.org/2000/svg" viewBox="0 0 400 400">
  <defs>
    <style>
      .cls-1 {
        fill: #fff;
        stroke-width: 0px;
      }
    </style>
  </defs>
  <path class="cls-1" d="m186.03,166.65c0,19.75-15.17,25.52-34.19,25.52-6.74,0-9.39,0-13.48-.24v-49.6c2.16-.24,8.67-.48,16.37-.48,20.95,0,31.3,9.63,31.3,24.8Z"/>
  <path class="cls-1" d="m339.23,6.49H60.77C28.18,6.49,1.53,33.15,1.53,65.72v268.56c0,32.58,26.66,59.23,59.24,59.23h278.47c32.58,0,59.24-26.65,59.24-59.23V65.72c0-32.57-26.66-59.23-59.24-59.23Zm-187.15,215.06h-13.72v47.43c0,1.21-.48,1.93-1.93,1.93h-29.61c-1.21,0-1.69-.72-1.69-1.93V115.36c0-1.44.24-1.92,1.44-1.92,9.88-.24,28.9-.73,47.2-.73,48.64,0,65.49,26.97,65.49,53.22,0,39.01-30.1,55.62-67.18,55.62Zm159.4-41.17c0,1.2-.48,1.68-2.17,1.68-17.33-.72-31.3,4.58-36.36,10.36l-.24,76.56c0,1.45-.48,1.93-2.16,1.93h-28.9c-1.92,0-2.41-.72-2.41-2.17v-83.07c0-10.35-.24-24.32-1.2-32.74,0-1.21.24-1.69,1.44-1.69h26.25c1.68,0,2.41.72,2.89,2.17,1.2,3.13,2.41,8.18,2.65,13.48,7.94-9.39,21.19-18.06,38.28-18.06,1.45,0,1.93.48,1.93,1.93v29.62Z"/>
</svg>