<?xml version="1.0" encoding="UTF-8"?>
<svg id="Calque_1" data-name="Calque 1" xmlns="http://www.w3.org/2000/svg" viewBox="0 0 400 400">
  <defs>
    <style>
      .cls-1 {
        fill: #fff;
        stroke-width: 0px;
      }
    </style>
  </defs>
  <path class="cls-1" d="m178.46,166.65c0,19.74-15.17,25.52-34.19,25.52-6.74,0-9.39,0-13.49-.24v-49.6c2.17-.24,8.67-.48,16.38-.48,20.95,0,31.3,9.63,31.3,24.8Z"/>
  <path class="cls-1" d="m339.23,6.49H60.77C28.18,6.49,1.53,33.15,1.53,65.72v268.56c0,32.58,26.66,59.23,59.24,59.23h278.47c32.58,0,59.24-26.65,59.24-59.23V65.72c0-32.57-26.66-59.23-59.24-59.23Zm-194.73,215.06h-13.73v47.43c0,1.21-.48,1.93-1.92,1.93h-29.62c-1.2,0-1.68-.72-1.68-1.93V115.36c0-1.44.24-1.92,1.44-1.92,9.87-.24,28.89-.73,47.19-.73,48.64,0,65.5,26.97,65.5,53.22,0,39-30.1,55.62-67.18,55.62Zm119.9,51.77c-14.69,0-27.45-2.65-34.91-6.74-1.2-.73-1.69-1.45-1.69-2.65v-26.01c0-1.44.97-2.17,1.93-1.44,11.08,6.98,24.56,9.63,35.39,9.63s16.38-3.13,16.38-8.19c0-4.57-4.09-7.94-18.3-13.24-27.21-10.11-36.12-21.67-36.12-39.01,0-18.78,15.17-36.84,46.95-36.84,14.21,0,25.29,1.93,31.31,4.82,1.44.72,1.68,1.92,1.68,3.13v24.08c0,1.44-.96,2.4-2.41,1.68-7.94-4.09-20.22-6.98-31.06-6.98s-14.93,4.09-14.93,8.19,3.13,7.22,17.1,12.52c29.13,10.59,38.28,21.91,38.28,39,0,22.88-17.81,38.05-49.6,38.05Z"/>
</svg>