<?xml version="1.0" encoding="UTF-8"?>
<svg id="Calque_1" data-name="Calque 1" xmlns="http://www.w3.org/2000/svg" viewBox="0 0 400 400">
  <defs>
    <style>
      .cls-1 {
        fill: #fff;
        stroke-width: 0px;
      }
    </style>
  </defs>
  <path class="cls-1" d="m339.23,6.49H60.75C28.19,6.49,1.53,33.14,1.53,65.72v268.56c0,32.57,26.66,59.23,59.22,59.23h278.48c32.58,0,59.25-26.66,59.25-59.23V65.72c0-32.58-26.67-59.23-59.25-59.23Zm18.53,273.52c-7.55,7.56-17.98,12.25-29.45,12.25H71.69c-22.93,0-41.7-18.76-41.7-41.7,0-11.47,4.69-21.89,12.25-29.45s17.98-12.25,29.45-12.25h2.46c-.16-1.74-.25-3.51-.25-5.29,0-29.89,24.23-54.12,54.12-54.12,5,0,9.85.68,14.45,1.95,13.43-25.94,40.51-43.66,71.74-43.66s56.94,16.84,70.7,41.72c37.23.63,67.33,30.53,68.28,67.68,10.19,7.63,16.82,19.79,16.82,33.42,0,11.47-4.69,21.89-12.25,29.45Z"/>
  <g>
    <path class="cls-1" d="m138.21,223.71c-1.57-2.17-3.53-3.74-5.88-4.72-2.34-.97-5.26-1.8-8.76-2.49-.15-.02-.3-.05-.44-.09s-.28-.07-.43-.1c-.11-.02-.21-.04-.31-.05-.1-.02-.2-.03-.3-.06-2.44-.48-4.32-.94-5.67-1.37-1.34-.43-2.47-1.11-3.38-2.03-.91-.93-1.37-2.19-1.37-3.79v-.03c0-1.91.87-3.38,2.62-4.43,1.75-1.06,4.22-1.58,7.42-1.58,2.13,0,4.35.4,6.67,1.22,2.32.81,4.54,1.95,6.67,3.42l4.41-8.82c-1.77-1.22-3.65-2.26-5.62-3.12-1.98-.86-4-1.52-6.07-1.98-2.07-.45-4.09-.68-6.06-.68-4.31,0-7.99.66-11.03,1.99-3.04,1.33-5.36,3.27-6.96,5.8-1.59,2.54-2.39,5.59-2.39,9.16v.04c0,4.03.85,7.14,2.54,9.34,1.7,2.19,3.77,3.72,6.2,4.6,2.44.87,5.5,1.6,9.2,2.18l.84.12c.08.02.15.04.21.04s.13,0,.21.03c2.1.33,3.82.7,5.17,1.11,1.34.4,2.43,1.04,3.27,1.9.84.86,1.25,2.03,1.25,3.5v.03c0,2.11-.93,3.74-2.81,4.89s-4.51,1.73-7.91,1.73c-2.94,0-5.8-.48-8.59-1.43-2.79-.95-5.25-2.3-7.38-4.05l-4.83,8.6c1.75,1.44,3.74,2.68,5.95,3.7,2.22,1.03,4.59,1.81,7.11,2.34,2.53.53,5.1.8,7.74.8,4.44,0,8.23-.66,11.39-1.98,3.15-1.31,5.56-3.23,7.2-5.74,1.65-2.51,2.47-5.52,2.47-9.05v-.07c0-3.75-.78-6.71-2.35-8.88Z"/>
    <path class="cls-1" d="m159.65,229.96v10.04h29.08v-10.04h-29.08Zm17.6-36.38h-6.61l-21.14,55.28h11.21l3.11-8.86,3.51-10.04,6.61-18.85,6.61,18.85,3.52,10.04,3.11,8.86h11.21l-21.14-55.28Z"/>
    <path class="cls-1" d="m215.58,229.96v10.04h29.08v-10.04h-29.08Zm17.6-36.38h-6.62l-21.14,55.28h11.22l3.11-8.86,3.51-10.04,6.61-18.85,6.61,18.85,3.51,10.04,3.11,8.86h11.22l-21.14-55.28Z"/>
    <path class="cls-1" d="m298.95,223.71c-1.57-2.17-3.53-3.74-5.87-4.72-2.35-.97-5.27-1.8-8.77-2.49-.15-.02-.29-.05-.43-.09s-.29-.07-.44-.1c-.1-.02-.2-.04-.3-.05-.1-.02-.21-.03-.31-.06-2.43-.48-4.32-.94-5.66-1.37-1.35-.43-2.47-1.11-3.39-2.03-.91-.93-1.37-2.19-1.37-3.79v-.03c0-1.91.88-3.38,2.63-4.43,1.75-1.06,4.22-1.58,7.41-1.58,2.13,0,4.35.4,6.67,1.22,2.32.81,4.55,1.95,6.68,3.42l4.41-8.82c-1.78-1.22-3.65-2.26-5.63-3.12-1.98-.86-4-1.52-6.06-1.98-2.07-.45-4.09-.68-6.07-.68-4.31,0-7.98.66-11.02,1.99-3.05,1.33-5.37,3.27-6.96,5.8-1.6,2.54-2.4,5.59-2.4,9.16v.04c0,4.03.85,7.14,2.55,9.34,1.7,2.19,3.76,3.72,6.2,4.6,2.43.87,5.5,1.6,9.2,2.18l.84.12c.07.02.14.04.2.04.07,0,.14,0,.21.03,2.11.33,3.83.7,5.17,1.11,1.35.4,2.44,1.04,3.27,1.9.84.86,1.26,2.03,1.26,3.5v.03c0,2.11-.94,3.74-2.82,4.89-1.87,1.15-4.51,1.73-7.9,1.73-2.94,0-5.81-.48-8.6-1.43-2.78-.95-5.24-2.3-7.37-4.05l-4.83,8.6c1.75,1.44,3.73,2.68,5.95,3.7,2.22,1.03,4.59,1.81,7.11,2.34,2.52.53,5.1.8,7.74.8,4.43,0,8.23-.66,11.38-1.98,3.16-1.31,5.56-3.23,7.21-5.74,1.65-2.51,2.47-5.52,2.47-9.05v-.07c0-3.75-.79-6.71-2.36-8.88Z"/>
  </g>
</svg>