<?xml version="1.0" encoding="UTF-8"?>
<svg id="Calque_1" data-name="Calque 1" xmlns="http://www.w3.org/2000/svg" viewBox="0 0 400 400">
  <defs>
    <style>
      .cls-1 {
        fill: #fff;
        stroke-width: 0px;
      }
    </style>
  </defs>
  <path class="cls-1" d="m130.47,240.22c5.37,16.05-6.53,35.82-23.08,38.61-4.8.81-7.7-1.59-7.66-6.42.06-6.17,3.11-11.02,7.11-15.37,4.56-4.96,17.09-13.82,23.63-16.82Z"/>
  <path class="cls-1" d="m181.39,214.17c-1.46,5.38-2.77,10.82-4.7,16.04-2.7,7.3-5.83,14.45-8.98,21.57-.58,1.3-2.17,2.16-3.29,3.22-.69-1.31-1.68-2.56-2.02-3.95-.5-2.14-.56-4.37-.8-6.57.38-10.52,4.06-19.8,10.43-27.99,1.54-1.98,3.9-3.38,6.04-4.79.73-.48,2.15-.55,2.9-.15.49.26.65,1.8.42,2.62Z"/>
  <path class="cls-1" d="m216.27,255.1c3.77-4.39,7.34-8.54,11.2-13.03-.24,5.56-5.89,12.12-11.2,13.03Z"/>
  <path class="cls-1" d="m260.3,230.89c2.8,6.14-1.38,13.92-8.65,16.06-1.05-3.79,3.74-12.69,8.65-16.06Z"/>
  <path class="cls-1" d="m339.23,6.49H60.75C28.18,6.49,1.52,33.14,1.52,65.72v268.56c0,32.57,26.65,59.23,59.23,59.23h278.48c32.58,0,59.24-26.66,59.24-59.23V65.72c0-32.58-26.66-59.23-59.24-59.23Zm-26.96,250.01c-.68.16-1.51-.31-2.27-.49.38-.69.63-1.51,1.18-2.04,1.59-1.52,3.59-2.7,4.9-4.43,4.12-5.42,2.9-12.8-2.82-18.51-4.63-4.63-10.42-6.91-16.73-7.9-8.97-1.41-17.86-1.36-26.69,2.29.38,1.09.74,2.06,1.04,3.05,1.97,6.52,1.02,12.39-3.82,17.43-4.41,4.58-9.78,7.55-15.84,9.18-5.53,1.49-8.91-1.36-8.63-7.05.24-4.9,2.33-9.17,5.25-12.95,2.64-3.41,5.67-6.52,8.51-9.75-2.06-5.87-4.21-12-6.43-18.34-.42.73-.93,1.66-1.47,2.58-3.88,6.55-7.83,13.07-11.6,19.68-.55.96-.69,2.52-.33,3.56,2.36,6.84,3.54,13.75-1.25,19.88-6.36,8.12-15.2,11.28-25.35,10.54-3.67-.27-5.11-3.74-2.91-6.92,2.46-3.56,5.35-6.83,8.06-10.22s5.48-6.74,8.1-10.19c.49-.65.83-1.86.57-2.55-2.39-6.23-4.92-12.41-7.33-18.4-2.42,5.51-4.84,11.59-7.71,17.44-4.35,8.82-8.92,17.53-13.61,26.18-1.21,2.24-2.99,4.29-4.86,6.05-4.55,4.29-9.99,2.55-11.19-3.61-.66-3.38-.72-6.87-1.1-10.77-1.47,3.11-2.75,6.02-4.2,8.83-1.33,2.56-2.73,5.1-4.29,7.53-3.26,5.1-11.81,4.91-14.95-.38-4.13-6.95-6.2-14.35-5.47-22.36.45-4.96,1.52-9.86,2.38-15.22-4.29,2.46-8.47,4.86-12.79,7.33,3.42,7.92,3.7,15.93,2.23,24.04-2.94,16.28-15.94,29.22-32.35,32.34-.35.06-.68.31-1.01.48h-10.44c-4.46-.97-8.29-2.74-10.52-7.14-3.4-6.71-3.02-13.44-.35-20.14,2.93-7.37,8.69-12.49,14.98-16.85,7.35-5.09,15.08-9.63,22.81-14.51-.48-.41-1.14-1.07-1.9-1.61-5.58-3.97-11.21-7.87-16.75-11.88-12.41-8.99-24.52-18.25-29.15-33.92v-8.12c2.7-9.72,7.66-18.16,14.4-25.63,9.48-10.52,20.73-18.75,33.05-25.58,14.91-8.26,30.35-15.35,47.22-18.48,14.31-2.65,28.64-2.84,42.49,2.69,18.45,7.37,22.65,22.8,16.53,39.26-7.01,18.85-21.08,30.68-39.92,37.1-12.25,4.18-24.8,5.83-37.65,3.97-6.72-.97-12.47-4.04-16.75-9.42-1.05-1.32-1.7-3-2.3-4.61-.2-.55.1-1.64.55-1.99.39-.29,1.59-.12,1.98.29,8.84,9.21,19.98,8.82,31.1,6.91,16.3-2.8,30.66-9.73,41.9-22.21,4.77-5.3,8.58-11.21,9.59-18.47,1.26-8.98-2.35-14.58-10.96-17.51-9.91-3.37-20.06-3.21-30.07-1.25-25.58,5.02-47.93,16.81-67.58,33.76-5.83,5.02-10.63,11.02-13.17,18.41-4.06,11.78-.19,21.49,8.72,29.38,6.56,5.82,13.59,11.11,20.36,16.7,2.75,2.27,5.36,4.71,8.29,7.3,4.67-2.54,9.48-5.14,14.28-7.76,1.44-.78,2.84-1.66,4.32-2.36,3.53-1.68,6.25-4.22,9-7,3.48-3.51,7.8-6.2,11.82-9.16.75-.56,1.74-.83,2.66-1.1,7.38-2.18,11.42.38,12.35,7.94.24,1.98.04,4.01.04,6.27.52-.11,1.1-.26,1.69-.36,4.54-.83,6.96,1.64,5.87,6.08-1.91,7.76-3.94,15.5-5.76,23.28-.46,1.93-.33,4,.18,6.31.43-.61.97-1.17,1.28-1.83,5.4-11.63,10.91-23.21,16.09-34.94,2.75-6.23,4.91-12.73,7.34-19.12.1-.27.15-.56.28-.81,1.55-3.17,13.34-4.1,15.09-1.04.52.92.15,2.61-.29,3.77-2.15,5.65-2.93,11.42-1.53,17.32.63,2.68,1.74,5.25,2.95,8.77,2.61-4.47,4.78-8.12,6.88-11.81,4.21-7.38,8.15-14.88,9.92-23.29.4-1.91,1.55-2.93,3.33-3.07,3.23-.26,6.49-.52,9.72-.37,2.57.13,3.38,1.76,2.45,4.27-1.94,5.21-3.02,10.48-2.28,16.15.64,4.95,3.05,9.01,5.22,13.25,3.41-1.13,6.53-2.43,9.79-3.2,10.9-2.61,21.72-2.64,31.89,2.67,9.55,4.99,15.61,12.48,15.28,23.91-.18,6.27-5.52,13.05-11.54,14.45Z"/>
</svg>