<?xml version="1.0" encoding="UTF-8"?>
<svg id="Calque_1" data-name="Calque 1" xmlns="http://www.w3.org/2000/svg" viewBox="0 0 400 400">
  <defs>
    <style>
      .cls-1 {
        fill: #fff;
        stroke-width: 0px;
      }
    </style>
  </defs>
  <path class="cls-1" d="m339.23,6.49H60.76C28.18,6.49,1.53,33.14,1.53,65.72v268.56c0,32.57,26.66,59.23,59.23,59.23h278.48c32.58,0,59.24-26.66,59.24-59.23V65.72c0-32.58-26.66-59.23-59.24-59.23Zm-29.42,321.57c0,12.87-49.17,23.29-109.82,23.29s-109.81-10.42-109.81-23.29v-63.17c0,12.87,49.17,23.29,109.81,23.29s109.82-10.42,109.82-23.29v63.17Zm0-86.45c0,12.86-49.17,23.28-109.82,23.28s-109.81-10.42-109.81-23.28v-63.17c0,12.86,49.17,23.29,109.81,23.29s109.82-10.43,109.82-23.29v63.17Zm0-86.46c0,12.87-49.17,23.29-109.82,23.29s-109.81-10.42-109.81-23.29v-63.16c0,12.86,49.17,23.28,109.81,23.28s109.82-10.42,109.82-23.28v63.16Zm-109.82-58.88c-60.64,0-109.81-10.43-109.81-23.29s49.17-23.28,109.81-23.28,109.82,10.42,109.82,23.28-49.17,23.29-109.82,23.29Z"/>
  <g>
    <path class="cls-1" d="m177.89,138.95h-9.31c-.41-2.95-1.97-4.91-5.02-4.91-2.12,0-3.57,1.03-3.57,3.21s1.66,3.67,7.55,5.07c7.86,1.86,11.07,5.79,11.07,11.27,0,7.14-6.83,10.76-14.01,10.76-9.05,0-15.15-3.62-15.72-11.63h9.31c.62,3.36,3.36,4.81,6.15,4.81,2.59,0,4.55-1.34,4.55-3.31,0-1.86-1.34-3.46-5.74-4.55-8.12-2.02-12.88-4.55-12.88-11.69s6.41-10.76,13.5-10.76c9.41,0,13.34,5.12,14.12,11.74Z"/>
    <path class="cls-1" d="m219.78,160.2l-4.45,5.9c-3.31-2.02-4.91-2.59-7.34-2.59-1.45,0-2.33.16-3.77.47-1.14.26-2.33.36-3.67.36-11.12,0-18.25-7.14-18.25-18.56s7.14-18.62,18.25-18.62,18.25,7.14,18.25,18.62c0,4.34-1.5,8.43-4.55,11.27,1.91.57,3.62,1.55,5.53,3.15Zm-19.24-2.69c5.38,0,8.74-4.19,8.74-11.74s-3.36-11.79-8.74-11.79-8.74,4.19-8.74,11.79,3.36,11.74,8.74,11.74Z"/>
    <path class="cls-1" d="m251.89,163.61h-27.36v-35.68h9.31v27.82h18.05v7.86Z"/>
  </g>
</svg>