<?xml version="1.0" encoding="UTF-8"?>
<svg id="Calque_1" data-name="Calque 1" xmlns="http://www.w3.org/2000/svg" viewBox="0 0 400 400">
  <defs>
    <style>
      .cls-1 {
        fill: #fff;
        stroke-width: 0px;
      }
    </style>
  </defs>
  <g>
    <path class="cls-1" d="m182.46,268.27c.02,10.88-8.23,17.46-17.34,17.27-15.87-.33-31.77-.33-47.64,0-9.93.2-17.3-7.75-17.2-17.13.29-25.18.1-50.37.1-75.55s-.02-50.72.02-76.08c.01-8.1,4.79-14.2,12.49-16.03,1.43-.34,2.96-.36,4.44-.36,15.97-.03,31.95.2,47.91-.11,8.79-.17,17.23,6.25,17.21,17.14-.06,50.29-.07,100.57.01,150.85Z"/>
    <path class="cls-1" d="m299.71,117.59c-.36,13.94-.09,27.9-.09,41.85s-.29,27.56.09,41.33c.27,9.5-7.11,17.62-17.48,17.38-15.79-.38-31.59-.34-47.38-.01-9.01.19-17.37-6.38-17.32-17.3.13-27.72.14-55.45-.01-83.18-.05-11.14,8.51-17.55,17.26-17.38,15.88.32,31.77.33,47.65,0,10.01-.21,17.52,7.69,17.28,17.31Z"/>
    <path class="cls-1" d="m339.23,6.49H60.75C28.17,6.49,1.52,33.14,1.52,65.72v268.56c0,32.57,26.65,59.23,59.23,59.23h278.48c32.58,0,59.24-26.66,59.24-59.23V65.72c0-32.58-26.66-59.23-59.24-59.23Zm-4.43,299.35c-.16.3-.39.59-.45.92-3.36,17.05-16.67,28.04-34.01,28.04-67.14,0-134.28.01-201.41,0-18.81,0-33.73-14.93-33.73-33.73-.01-67.4,0-134.8,0-202.2,0-13.76,8-25.81,20.76-31.08,2.64-1.09,5.46-1.73,8.2-2.58h211.68c.39.16.77.41,1.18.49,10.35,1.9,18.23,7.46,23.32,16.57,2.04,3.66,3,7.92,4.46,11.9v211.68Z"/>
  </g>
  <g>
    <path class="cls-1" d="m182.46,268.27c.02,10.88-8.23,17.46-17.34,17.27-15.87-.33-31.77-.33-47.64,0-9.93.2-17.3-7.75-17.2-17.13.29-25.18.1-50.37.1-75.55s-.02-50.72.02-76.08c.01-8.1,4.79-14.2,12.49-16.03,1.43-.34,2.96-.36,4.44-.36,15.97-.03,31.95.2,47.91-.11,8.79-.17,17.23,6.25,17.21,17.14-.06,50.29-.07,100.57.01,150.85Z"/>
    <path class="cls-1" d="m299.71,200.77c.27,9.5-7.11,17.62-17.48,17.38-15.79-.38-31.59-.34-47.38-.01-9.01.19-17.37-6.38-17.32-17.3.13-27.72.14-55.45-.01-83.18-.05-11.14,8.51-17.55,17.26-17.38,15.88.32,31.77.33,47.65,0,10.01-.21,17.52,7.69,17.28,17.31-.36,13.94-.09,27.9-.09,41.85s-.29,27.56.09,41.33Z"/>
  </g>
</svg>