<?xml version="1.0" encoding="UTF-8"?>
<svg id="Calque_1" data-name="Calque 1" xmlns="http://www.w3.org/2000/svg" viewBox="0 0 400 400">
  <defs>
    <style>
      .cls-1 {
        fill: #fff;
        stroke-width: 0px;
      }
    </style>
  </defs>
  <path class="cls-1" d="m339.24,6.49H60.76C28.18,6.49,1.53,33.14,1.53,65.72v268.56c0,32.57,26.65,59.23,59.23,59.23h278.48c32.58,0,59.24-26.66,59.24-59.23V65.72c0-32.58-26.66-59.23-59.24-59.23Zm-5.48,250.58v3.91c-6.75-3.91-13.08-7.58-19.41-11.26-8.31-4.82-16.58-9.73-24.96-14.43-1.9-1.07-2.46-2.25-2.45-4.36.1-17.08.08-34.15,0-51.22-.01-1.34-.42-3.31-1.31-3.82-.85-.49-2.72.29-3.89.96-18.08,10.36-36.11,20.82-54.2,31.17-2.42,1.38-3.41,3.15-3.4,5.92.07,21.22.04,42.44.04,63.65.01,4.22,1.21,4.88,4.94,2.73,14.85-8.58,29.67-17.2,44.56-25.7.98-.56,2.77-.78,3.66-.27,15.04,8.6,29.99,17.33,45.32,26.24-5.78,3.35-11.31,6.55-16.84,9.75-31.6,18.26-63.2,36.51-94.79,54.78-3.52,2.04-7,4.16-10.5,6.23h-.6c-14.75-8.63-29.49-17.29-44.26-25.9-25.38-14.81-50.79-29.58-76.18-44.37-.51-.3-.99-.63-1.78-1.14,6.5-3.79,12.81-7.48,19.13-11.15,8.33-4.84,16.71-9.6,24.96-14.57,1.83-1.1,3.12-.92,4.81.06,14.51,8.48,29.05,16.9,43.59,25.31,4.04,2.34,5.8,1.33,5.81-3.41.03-20.72-.04-41.44.05-62.17.02-3.36-1.3-5.48-4.16-7.12-18-10.29-35.95-20.66-53.93-31-3.33-1.93-5.18-.86-5.18,3.05-.02,17.27.02,34.54-.08,51.81-.01,1.11-.69,2.74-1.58,3.26-14.38,8.49-28.85,16.84-43.3,25.22-.4.23-.85.39-1.64.74v-3.45c0-44.8.03-89.6-.06-134.41,0-2.43.84-3.58,2.86-4.73,39.23-22.47,78.41-45.01,117.6-67.53.64-.37,1.34-.65,2.29-1.11.06,1.15.15,2,.15,2.84.01,15.98-.04,31.97.06,47.96.02,2.18-.75,3.28-2.58,4.33-14.71,8.41-29.36,16.93-44.03,25.41-3.7,2.13-3.73,4.16.02,6.33,18.13,10.52,36.28,21,54.41,31.53,2.51,1.46,4.81,1.47,7.37-.02,18.13-10.55,36.32-21,54.47-31.52,3.73-2.17,3.66-4.12-.2-6.36-14.67-8.53-29.33-17.06-44.07-25.47-1.88-1.08-2.56-2.2-2.54-4.35.08-16.77.04-33.54.04-50.77,5.38,3.09,10.46,6.01,15.53,8.95,34.07,19.78,68.13,39.59,102.24,59.29,2.9,1.67,4.14,3.35,4.13,6.96-.18,44.41-.12,88.82-.12,133.22Z"/>
</svg>