<?xml version="1.0" encoding="UTF-8"?>
<svg id="Calque_1" data-name="Calque 1" xmlns="http://www.w3.org/2000/svg" viewBox="0 0 400 400">
  <defs>
    <style>
      .cls-1 {
        fill: #fff;
        stroke-width: 0px;
      }
    </style>
  </defs>
  <path class="cls-1" d="m76.94,146.55c21.35,58.12,42.54,115.85,63.82,173.79-65.97-30.51-92.33-111.14-63.82-173.79Z"/>
  <path class="cls-1" d="m202.61,212.71c14.07,38.44,27.84,76.05,41.88,114.37-7.33,1.76-14.42,3.83-21.65,5.14-18.68,3.37-37.27,2.57-55.71-1.94-.76-.18-1.49-.53-2.26-.65-1.88-.31-2.04-1.23-1.46-2.91,6.82-19.75,13.58-39.52,20.35-59.29,6.01-17.55,12.02-35.1,18.04-52.66.14-.42.33-.84.81-2.06Z"/>
  <path class="cls-1" d="m268.97,275.1c-.45,1.43-.96,2.85-1.67,4.96-16.23-48.09-32.2-95.43-48.23-142.93,5.01-.52,9.85-.94,14.68-1.53,2.76-.33,4.78-1.75,5.28-4.69.5-2.99-.68-5.56-3.34-6.48-1.5-.52-3.27-.44-4.9-.37-11.86.5-23.72,1.45-35.57,1.48-10.78.04-21.56-.87-32.33-1.45-3.78-.2-6.22,1.23-7.21,4.58-.75,2.55.56,5.58,3.1,6.57,1.23.48,2.66.51,4.01.67,2.92.34,5.85.93,8.76.86,2.71-.06,3.64,1.13,4.48,3.45,5.96,16.44,12.03,32.84,18.15,49.22,1.21,3.24,1.34,6.17.18,9.61-9.03,26.78-17.83,53.64-26.71,80.48-.18.52-.49,1-1.06,2.16-16.33-48.3-32.47-96.03-48.78-144.29,3.79-.39,7.23-.74,10.66-1.11,1.56-.17,3.13-.32,4.67-.6,3.21-.59,5.33-3.33,4.92-6.27-.47-3.43-2.81-5.36-6.32-5.17-10.67.57-21.34,1.21-32.02,1.71-3.69.17-7.4.03-11.4.03,39.46-64.85,137.28-83.88,200.28-26.82-3.55,1.29-7.65,1.98-10.84,4.07-10.81,7.06-14.54,19.39-9.31,31.77,3.11,7.35,7.35,14.24,11.36,21.17,7.05,12.19,11.65,25.04,10.96,39.31-.46,9.63-2.79,18.94-5.65,28.12-5.37,17.16-10.76,34.32-16.15,51.49Z"/>
  <path class="cls-1" d="m314.58,180.77c4.37-13.77,5.4-28.02,4.26-42.44,7.99,7.31,17.13,49.72,15.59,68.01-3.94,46.87-25.42,82.95-64.69,108.47-.33-.14-.66-.29-.99-.43,1.53-4.61,3.02-9.23,4.61-13.82,8.52-24.66,17.09-49.32,25.61-73.99,5.27-15.25,10.74-30.43,15.61-45.8Z"/>
  <path class="cls-1" d="m339.23,6.49H60.76C28.18,6.49,1.53,33.14,1.53,65.72v268.56c0,32.57,26.65,59.23,59.23,59.23h278.48c32.58,0,59.24-26.66,59.24-59.23V65.72c0-32.58-26.66-59.23-59.24-59.23Zm-138.7,343.81c-83.4.27-150.42-66.63-150.89-148.76-.47-83.87,68.73-152.85,150.59-151.83,81.5-.43,150.65,66.46,150.12,150.69-.53,82.68-67.23,149.62-149.82,149.9Z"/>
</svg>