<?xml version="1.0" encoding="UTF-8"?>
<svg id="Calque_1" data-name="Calque 1" xmlns="http://www.w3.org/2000/svg" viewBox="0 0 400 400">
  <defs>
    <style>
      .cls-1 {
        fill: #fff;
        stroke-width: 0px;
      }
    </style>
  </defs>
  <path class="cls-1" d="m339.23,6.49H60.77C28.18,6.49,1.53,33.14,1.53,65.72v268.56c0,32.57,26.66,59.23,59.24,59.23h278.47c32.58,0,59.24-26.66,59.24-59.23V65.72c0-32.58-26.66-59.23-59.24-59.23Zm-135.03,264.42h-34.19c-2.17,0-3.37-.73-4.09-2.17-10.6-18.78-21.19-37.56-32.03-57.31h-.24c-9.63,19.27-20.22,38.77-30.34,57.55-.72,1.44-1.68,1.93-3.37,1.93h-32.5c-1.69,0-1.69-1.45-.97-2.41l46.23-76.57-45.26-76.33c-.97-1.2,0-2.41,1.2-2.41h33.95c1.69,0,2.41.24,3.13,1.93,9.63,19.02,20.95,38.04,30.82,57.06h.24c9.39-19.26,19.99-37.8,29.86-57.06.72-1.21,1.2-1.93,3.37-1.93h31.06c1.69,0,1.93,1.21.96,2.65l-44.3,73.68,47.68,78.74c.72,1.2.24,2.41-1.21,2.65Zm114.61-7.23c-16.61,6.99-32.51,9.63-47.44,9.63-35.63,0-63.08-20.22-63.08-61.15,0-34.44,25.76-63.33,69.83-63.33,1.92,0,4.33.24,7.94.48v-47.43c0-1.21.73-1.69,1.69-1.69h30.34c1.2,0,1.44.48,1.44,1.45v142.3c0,5.54.24,12.76.97,17.58,0,1.2-.25,1.68-1.69,2.16Zm-76.09-53.21c0,23.84,13.73,34.19,32.02,34.19,4.1,0,7.95-.24,11.32-1.44v-65.26c-2.4-.96-5.54-1.2-8.91-1.2-18.54,0-34.43,11.32-34.43,33.71Z"/>
</svg>