<?xml version="1.0" encoding="UTF-8"?>
<svg id="Calque_1" data-name="Calque 1" xmlns="http://www.w3.org/2000/svg" viewBox="0 0 400 400">
  <defs>
    <style>
      .cls-1 {
        fill: #fff;
        stroke-width: 0px;
      }
    </style>
  </defs>
  <path class="cls-1" d="m200,0C89.54,0,0,89.54,0,200s89.55,200,200,200,200-89.54,200-200S310.46,0,200,0Zm94.09,143.12c-.67,12.29-5.37,24.26-16.14,33.48-3.08,2.64-5.93,3.71-9.83,1.35-4.98-3.03-10.53-5.14-15.39-8.33-15.18-9.97-17.12-27.91-4.63-41.11,6.68-7.06,15.07-10.33,24.67-10.21,13.37.17,21.55,9.25,21.32,24.82Zm-22.71,104.74c-6.81,5.07-14.5,7.4-22.97,7.26-20.57.27-31.84-14.76-27.07-36.46,2.9-13.16,10.93-22.62,22.61-29,1.42-.78,3.84-.88,5.31-.21,6.89,3.14,13.9,6.2,20.36,10.14,19.1,11.64,19.83,34.84,1.76,48.27Zm-177.54,2.35h47.42c-3.42,14.87-6.75,29.34-10.29,44.76-16.38-12.3-28.39-26.71-37.13-44.76Zm-5.23-13.13c23.88-22.64,46.91-44.47,71.33-67.62-5.44,23.58-10.5,45.49-15.61,67.62h-55.72Zm174.37,62.04c-44.47,28.8-101.54,19.92-128.62-2.94,3.77,0,7.27-.24,10.73.07,3.65.31,5.12-1.06,5.86-4.64,2.16-10.5,4.7-20.92,7.13-31.37q2.4-10.34,12.88-10.34,11.6,0,13.51-11.48c.03-.18-.07-.37-.21-1.03h-20.83c6.94-30.12,13.75-59.66,20.61-89.45-8.26-1.34-14.46-.45-20.64,5.65-24.04,23.73-48.74,46.79-73.2,70.09-1.22,1.16-2.55,2.18-4.29,3.65-1.16-4.85-2.17-9.08-3.19-13.31v-28.14c.36-.87.89-1.72,1.05-2.62,8.7-48.96,36.89-80.93,84.07-96.19,5.87-1.9,12.02-2.92,18.04-4.34h28.13c5.09,1.17,10.2,2.24,15.25,3.53,17.39,4.44,32.84,12.55,47.28,24.77-2.02.12-2.96.19-3.91.23-16.52.78-30.82,6.75-42.18,18.86-14.53,15.5-12.95,36.47,3.46,49.92,1.89,1.55,3.81,3.04,4.67,3.72-9.2,6.14-19.28,11.22-27.28,18.55-16.07,14.72-17.59,49.15,15.39,57.83,7.94,2.09,16.67,2.35,24.93,1.8,18.08-1.21,33.6-8.49,44.98-23.04,13.47-17.23,9.9-38.16-8.31-50.22-2.7-1.79-5.53-3.37-8.95-5.44,12.64-5.48,23.06-12.9,30.13-24.8,18.24,45.88,5.28,107.16-46.49,140.68Z"/>
</svg>