<?xml version="1.0" encoding="UTF-8"?>
<svg id="Calque_1" data-name="Calque 1" xmlns="http://www.w3.org/2000/svg" viewBox="0 0 400 400">
  <defs>
    <style>
      .cls-1 {
        fill: #fff;
        stroke-width: 0px;
      }
    </style>
  </defs>
  <path class="cls-1" d="m150.23,120.38c-1.3,1.13-1.92,1.81-1.92,1.81,0,0-22.66,16.61-31.78,49.69,4.38,2.39,9.41,3.75,14.75,3.75,17.06,0,30.87-13.82,30.87-30.87,0-9.91-4.67-18.73-11.92-24.38ZM200,0C89.54,0,0,89.54,0,200s89.55,200,200,200,200-89.54,200-200S310.46,0,200,0Zm-24.48,220.46c1.34,3.86,3.02,7.6,5.11,11.11,2.24,3.77,4.94,7.26,8.16,10.24,3.47,3.21,7.51,5.78,11.91,7.52,5.77,2.31,12.09,3.17,18.27,3.09,7.01-.08,13.88-1.74,20.26-4.6,6.65-2.99,12.7-7.21,18-12.2,1.25-1.18,2.46-2.41,3.63-3.67l38.75,34.32s-32.39,34.9-81.04,34.9-70.26-23.38-70.26-23.38c0,0-35.5-26.02-35.5-77.79,0-10.41,1.43-19.8,3.72-28.12-9.61-5.23-16.13-15.41-16.13-27.12,0-17.06,13.83-30.89,30.88-30.89,7.15,0,13.71,2.42,18.95,6.51,6.24-5.48,27.98-21.55,68.34-21.55,48.65,0,81.04,34.9,81.04,34.9l-38.75,34.32c-1.17-1.26-2.38-2.49-3.63-3.67-5.3-5-11.35-9.23-18-12.21-6.38-2.86-13.25-4.51-20.26-4.61-6.18-.06-12.5.8-18.27,3.09-4.4,1.76-8.44,4.33-11.91,7.54-3.22,2.98-5.92,6.47-8.16,10.23-2.09,3.52-3.77,7.26-5.11,11.12-2.27,6.49-3.74,13.46-3.82,20.42-.08,7.07,1.5,13.88,3.82,20.5Zm-13.37-75.7c0-9.91-4.67-18.73-11.92-24.38-1.3,1.13-1.92,1.81-1.92,1.81,0,0-22.66,16.61-31.78,49.69,4.38,2.39,9.41,3.75,14.75,3.75,17.06,0,30.87-13.82,30.87-30.87Z"/>
</svg>