<?xml version="1.0" encoding="UTF-8"?>
<svg id="Calque_1" data-name="Calque 1" xmlns="http://www.w3.org/2000/svg" viewBox="0 0 400 400">
  <defs>
    <style>
      .cls-1 {
        fill: #fff;
        stroke-width: 0px;
      }
    </style>
  </defs>
  <path class="cls-1" d="m105.64,199.49c-1.94-2.25-4.44-3.21-7.39-2.94-3.37.3-5.73,2.03-7.06,5.12-.73,1.69-.89,3.46-.68,5.27.47,4.09,3.57,7.6,7.91,7.93,2.94.22,5.47-.64,7.39-2.94,1.48-1.77,2.04-3.86,2.08-6.15-.02-2.34-.69-4.49-2.25-6.29Zm0,0c-1.94-2.25-4.44-3.21-7.39-2.94-3.37.3-5.73,2.03-7.06,5.12-.73,1.69-.89,3.46-.68,5.27.47,4.09,3.57,7.6,7.91,7.93,2.94.22,5.47-.64,7.39-2.94,1.48-1.77,2.04-3.86,2.08-6.15-.02-2.34-.69-4.49-2.25-6.29Zm0,0c-1.94-2.25-4.44-3.21-7.39-2.94-3.37.3-5.73,2.03-7.06,5.12-.73,1.69-.89,3.46-.68,5.27.47,4.09,3.57,7.6,7.91,7.93,2.94.22,5.47-.64,7.39-2.94,1.48-1.77,2.04-3.86,2.08-6.15-.02-2.34-.69-4.49-2.25-6.29Zm97.57,1.03c-1.3-3.53-4.53-5.25-8.18-4.38-3.26.78-5,3.9-5.41,6.85h14.29c-.24-.86-.41-1.69-.7-2.47Zm0,0c-1.3-3.53-4.53-5.25-8.18-4.38-3.26.78-5,3.9-5.41,6.85h14.29c-.24-.86-.41-1.69-.7-2.47Zm-97.57-1.03c-1.94-2.25-4.44-3.21-7.39-2.94-3.37.3-5.73,2.03-7.06,5.12-.73,1.69-.89,3.46-.68,5.27.47,4.09,3.57,7.6,7.91,7.93,2.94.22,5.47-.64,7.39-2.94,1.48-1.77,2.04-3.86,2.08-6.15-.02-2.34-.69-4.49-2.25-6.29Zm0,0c-1.94-2.25-4.44-3.21-7.39-2.94-3.37.3-5.73,2.03-7.06,5.12-.73,1.69-.89,3.46-.68,5.27.47,4.09,3.57,7.6,7.91,7.93,2.94.22,5.47-.64,7.39-2.94,1.48-1.77,2.04-3.86,2.08-6.15-.02-2.34-.69-4.49-2.25-6.29Zm97.57,1.03c-1.3-3.53-4.53-5.25-8.18-4.38-3.26.78-5,3.9-5.41,6.85h14.29c-.24-.86-.41-1.69-.7-2.47Zm0,0c-1.3-3.53-4.53-5.25-8.18-4.38-3.26.78-5,3.9-5.41,6.85h14.29c-.24-.86-.41-1.69-.7-2.47Zm-97.57-1.03c-1.94-2.25-4.44-3.21-7.39-2.94-3.37.3-5.73,2.03-7.06,5.12-.73,1.69-.89,3.46-.68,5.27.47,4.09,3.57,7.6,7.91,7.93,2.94.22,5.47-.64,7.39-2.94,1.48-1.77,2.04-3.86,2.08-6.15-.02-2.34-.69-4.49-2.25-6.29Zm0,0c-1.94-2.25-4.44-3.21-7.39-2.94-3.37.3-5.73,2.03-7.06,5.12-.73,1.69-.89,3.46-.68,5.27.47,4.09,3.57,7.6,7.91,7.93,2.94.22,5.47-.64,7.39-2.94,1.48-1.77,2.04-3.86,2.08-6.15-.02-2.34-.69-4.49-2.25-6.29Zm97.57,1.03c-1.3-3.53-4.53-5.25-8.18-4.38-3.26.78-5,3.9-5.41,6.85h14.29c-.24-.86-.41-1.69-.7-2.47Zm0,0c-1.3-3.53-4.53-5.25-8.18-4.38-3.26.78-5,3.9-5.41,6.85h14.29c-.24-.86-.41-1.69-.7-2.47Zm-97.57-1.03c-1.94-2.25-4.44-3.21-7.39-2.94-3.37.3-5.73,2.03-7.06,5.12-.73,1.69-.89,3.46-.68,5.27.47,4.09,3.57,7.6,7.91,7.93,2.94.22,5.47-.64,7.39-2.94,1.48-1.77,2.04-3.86,2.08-6.15-.02-2.34-.69-4.49-2.25-6.29ZM200,0C89.55,0,0,89.54,0,200s89.55,200,200,200,200-89.54,200-200S310.46,0,200,0ZM68.76,222.52c-4.7,1.09-9.28.81-13.56-1.55-4.82-2.65-7.7-6.75-8.61-12.15-.86-5.14.22-9.88,3.47-14.02,2.62-3.34,6.09-5.38,10.27-6.15,3.7-.68,7.35-.43,10.89.93,2.22.85,4.7,2.67,6.02,4.36-1.92,2.07-3.85,4.14-5.77,6.2-.69-.6-1.32-1.24-2.04-1.77-2.58-1.91-5.42-2.46-8.46-1.31-2.25.85-3.72,2.55-4.54,4.76-1.2,3.2-1.03,6.36.78,9.29,1.77,2.88,4.5,4,7.83,3.76,2.36-.16,4.29-1.27,6.03-2.79.26-.23.52-.46.7-.62,1.9,1.84,3.79,3.66,5.68,5.5-2.4,2.69-5.17,4.74-8.69,5.56Zm34.84.06c-5.37,1.19-10.46.47-15.07-2.62-4.18-2.81-6.59-6.79-7.34-11.76-.12-.8-.13-1.62-.17-2.06-.01-8.4,5.44-15.33,13.32-17.23,5.59-1.34,10.89-.6,15.67,2.7,3.98,2.75,6.33,6.59,7.07,11.35,1.4,9.15-4.41,17.61-13.48,19.62Zm50.92-.27h-9.49v-4.63c-.44.5-.79.93-1.16,1.34-1.76,1.93-3.84,3.36-6.46,3.76-3.93.58-7.54-.05-10.44-3.02-1.55-1.59-2.39-3.56-2.76-5.71-.21-1.15-.33-2.34-.34-3.51-.03-7.04-.01-14.09-.01-21.14v-.46h9.52v.49c0,6.13,0,12.27,0,18.4,0,1.11.17,2.2.59,3.25.79,2.01,2.51,3.2,4.67,3.26.88.02,1.74-.02,2.58-.3,2.17-.72,3.24-2.35,3.62-4.5.14-.74.18-1.5.18-2.26,0-5.93,0-11.87,0-17.81v-.52h9.49v33.36Zm18.4,0h-9.45v-45.44h9.45v45.44Zm40.1-13.98c-.01.18-.02.37-.04.61h-23.27c.06.28.11.52.18.75,1,3.5,3.63,5.55,7.27,5.76,3.11.18,5.8-.76,8.13-2.8.21-.18.42-.37.64-.55.01-.01.02-.01.07-.04,1.79,1.59,3.6,3.18,5.43,4.8-1.21,1.48-2.58,2.73-4.18,3.72-2.37,1.46-4.95,2.22-7.7,2.44-3.44.28-6.76-.15-9.89-1.66-4.96-2.39-7.96-6.35-9.04-11.73-.79-3.99-.46-7.91,1.25-11.63,2.43-5.28,6.51-8.53,12.28-9.48,3.45-.57,6.84-.18,10.02,1.35,4,1.91,6.44,5.18,7.81,9.3,1,2.97,1.29,6.04,1.04,9.16Zm37.5,13.98h-9.46v-4.49s-.07-.02-.1-.03c-.24.28-.48.57-.72.85-1.72,1.98-3.74,3.55-6.38,4.05-3.73.71-7.23.23-10.22-2.31-1.87-1.59-2.89-3.7-3.35-6.07-.24-1.23-.37-2.5-.38-3.75-.03-7.05-.01-14.1-.01-21.14v-.5h.5c2.83,0,5.65,0,8.48-.01.42,0,.54.1.54.53-.02,6.01,0,12.01,0,18.02,0,1.11.1,2.21.45,3.27.76,2.26,2.53,3.55,4.9,3.61,1.08.03,2.14-.08,3.12-.55,1.89-.9,2.73-2.54,3.04-4.5.1-.64.12-1.29.12-1.93,0-5.95,0-11.91,0-17.86v-.57h9.47v33.38Zm18.57-16.95c-.42,1.63-.53,3.29-.53,4.96v12h-9.48v-33.38h9.46v6.39s.07.02.11.03c1.21-2.67,2.81-4.99,5.6-6.22,1.48-.66,3.48-.98,4.96-.79v9.85c-.62.04-1.23.06-1.84.12-4.31.38-7.19,2.83-8.28,7.04Zm20.14,16.97h-10.06v-9.95h10.06v9.95Zm25.48-25.28h-7.8c-.01.18-.02.32-.02.45,0,4.59,0,9.18,0,13.77,0,.43.05.87.15,1.29.29,1.22,1.11,1.87,2.36,1.95,1.71.1,3.32-.22,4.86-.97.1-.05.22-.09.38-.16v.46c0,2.23,0,4.46.01,6.7,0,.31-.09.49-.38.65-2.64,1.46-5.49,1.91-8.46,1.66-1.04-.08-2.09-.26-3.09-.57-2.74-.85-4.27-2.84-4.94-5.57-.32-1.33-.42-2.68-.42-4.05v-15.57h-3.94v-8.16h3.95v-8.51h9.5v8.48h7.84v8.15Zm25.99,25.16c-.11.29-.25.4-.57.39-2.62-.01-5.23-.01-7.84,0-.31,0-.43-.1-.54-.37-4.28-10.95-8.57-21.89-12.85-32.84-.05-.13-.09-.26-.16-.47h.56c2.97,0,5.93,0,8.9-.01.45,0,.65.11.79.55,2.37,7.11,4.75,14.22,7.14,21.33.04.13.09.26.16.45.53-1.57,1.04-3.08,1.55-4.59,1.95-5.78,3.9-11.56,5.85-17.34.1-.3.23-.4.56-.4,3,.01,6.01.01,9.02.01h.43c-.07.21-.13.39-.2.57-4.26,10.9-8.53,21.81-12.8,32.72Zm-145.67-26.07c-3.26.78-5,3.9-5.41,6.85h14.29c-.24-.86-.41-1.69-.7-2.47-1.3-3.53-4.53-5.25-8.18-4.38Zm-96.78.41c-3.37.3-5.73,2.03-7.06,5.12-.73,1.69-.89,3.46-.68,5.27.47,4.09,3.57,7.6,7.91,7.93,2.94.22,5.47-.64,7.39-2.94,1.48-1.77,2.04-3.86,2.08-6.15-.02-2.34-.69-4.49-2.25-6.29-1.94-2.25-4.44-3.21-7.39-2.94Zm7.39,2.94c-1.94-2.25-4.44-3.21-7.39-2.94-3.37.3-5.73,2.03-7.06,5.12-.73,1.69-.89,3.46-.68,5.27.47,4.09,3.57,7.6,7.91,7.93,2.94.22,5.47-.64,7.39-2.94,1.48-1.77,2.04-3.86,2.08-6.15-.02-2.34-.69-4.49-2.25-6.29Zm97.57,1.03c-1.3-3.53-4.53-5.25-8.18-4.38-3.26.78-5,3.9-5.41,6.85h14.29c-.24-.86-.41-1.69-.7-2.47Zm0,0c-1.3-3.53-4.53-5.25-8.18-4.38-3.26.78-5,3.9-5.41,6.85h14.29c-.24-.86-.41-1.69-.7-2.47Zm-97.57-1.03c-1.94-2.25-4.44-3.21-7.39-2.94-3.37.3-5.73,2.03-7.06,5.12-.73,1.69-.89,3.46-.68,5.27.47,4.09,3.57,7.6,7.91,7.93,2.94.22,5.47-.64,7.39-2.94,1.48-1.77,2.04-3.86,2.08-6.15-.02-2.34-.69-4.49-2.25-6.29Zm0,0c-1.94-2.25-4.44-3.21-7.39-2.94-3.37.3-5.73,2.03-7.06,5.12-.73,1.69-.89,3.46-.68,5.27.47,4.09,3.57,7.6,7.91,7.93,2.94.22,5.47-.64,7.39-2.94,1.48-1.77,2.04-3.86,2.08-6.15-.02-2.34-.69-4.49-2.25-6.29Zm97.57,1.03c-1.3-3.53-4.53-5.25-8.18-4.38-3.26.78-5,3.9-5.41,6.85h14.29c-.24-.86-.41-1.69-.7-2.47Zm0,0c-1.3-3.53-4.53-5.25-8.18-4.38-3.26.78-5,3.9-5.41,6.85h14.29c-.24-.86-.41-1.69-.7-2.47Zm-97.57-1.03c-1.94-2.25-4.44-3.21-7.39-2.94-3.37.3-5.73,2.03-7.06,5.12-.73,1.69-.89,3.46-.68,5.27.47,4.09,3.57,7.6,7.91,7.93,2.94.22,5.47-.64,7.39-2.94,1.48-1.77,2.04-3.86,2.08-6.15-.02-2.34-.69-4.49-2.25-6.29Zm0,0c-1.94-2.25-4.44-3.21-7.39-2.94-3.37.3-5.73,2.03-7.06,5.12-.73,1.69-.89,3.46-.68,5.27.47,4.09,3.57,7.6,7.91,7.93,2.94.22,5.47-.64,7.39-2.94,1.48-1.77,2.04-3.86,2.08-6.15-.02-2.34-.69-4.49-2.25-6.29Zm0,0c-1.94-2.25-4.44-3.21-7.39-2.94-3.37.3-5.73,2.03-7.06,5.12-.73,1.69-.89,3.46-.68,5.27.47,4.09,3.57,7.6,7.91,7.93,2.94.22,5.47-.64,7.39-2.94,1.48-1.77,2.04-3.86,2.08-6.15-.02-2.34-.69-4.49-2.25-6.29Zm0,0c-1.94-2.25-4.44-3.21-7.39-2.94-3.37.3-5.73,2.03-7.06,5.12-.73,1.69-.89,3.46-.68,5.27.47,4.09,3.57,7.6,7.91,7.93,2.94.22,5.47-.64,7.39-2.94,1.48-1.77,2.04-3.86,2.08-6.15-.02-2.34-.69-4.49-2.25-6.29Zm0,0c-1.94-2.25-4.44-3.21-7.39-2.94-3.37.3-5.73,2.03-7.06,5.12-.73,1.69-.89,3.46-.68,5.27.47,4.09,3.57,7.6,7.91,7.93,2.94.22,5.47-.64,7.39-2.94,1.48-1.77,2.04-3.86,2.08-6.15-.02-2.34-.69-4.49-2.25-6.29Z"/>
</svg>