<?xml version="1.0" encoding="UTF-8"?>
<svg id="Calque_1" data-name="Calque 1" xmlns="http://www.w3.org/2000/svg" viewBox="0 0 400 400">
  <defs>
    <style>
      .cls-1 {
        fill: #fff;
        stroke-width: 0px;
      }
    </style>
  </defs>
  <path class="cls-1" d="m177.32,171.03c-7-4.4-14.47-4.42-21.63-.39-7.8,4.4-11.03,11.58-11.18,19.53.35,15.79,13.4,26.22,27.2,22.37,9.52-2.65,14.61-9.44,15.77-18.91,1.15-9.37-1.88-17.41-10.16-22.6Zm0,0c-7-4.4-14.47-4.42-21.63-.39-7.8,4.4-11.03,11.58-11.18,19.53.35,15.79,13.4,26.22,27.2,22.37,9.52-2.65,14.61-9.44,15.77-18.91,1.15-9.37-1.88-17.41-10.16-22.6ZM200,0C89.54,0,0,89.54,0,200s89.55,200,200,200,200-89.54,200-200S310.46,0,200,0Zm-104.65,255.77h-37.8V97.07h37.8v158.7Zm129.34-9.84c-.11,19.66-7.12,36.21-23.97,47.43-12.83,8.55-27.23,10.84-42.34,8.94-12.24-1.54-23.34-5.95-32.74-14.11-9.33-8.1-14.46-18.45-16.08-30.61-.05-.42.05-.86.1-1.58h2.97c10.55,0,21.1-.04,31.65.06.91,0,2.42.65,2.64,1.32,2.96,9.09,10.77,13.1,20.43,12.73,11.76-.45,18.65-7.14,19.55-18.88.27-3.52.04-7.08.04-10.42-3.94,1.84-7.61,4.11-11.61,5.33-30.22,9.24-61.63-9.35-67.92-40.37-4.31-21.24-.33-40.81,14.98-56.7,14.4-14.95,32.07-19.75,52.23-13.41,2.26.71,4.41,1.95,6.45,3.2,1.95,1.19,3.7,2.72,5.86,4.35v-7.34h37.81v2.78c0,35.76.13,71.52-.05,107.28Zm113.21-24.05v33.9h-102.03c-.1-.14-.29-.29-.28-.43.22-9.46-.21-19,.85-28.37,1.75-15.49,10.05-27.56,22.38-36.72,6.29-4.67,13.21-8.49,19.83-12.7,6.33-4.03,12.77-7.88,18.91-12.18,3.56-2.5,6.17-5.96,6.16-10.74-.01-5.22-2.9-9.54-7.74-11.47-9.53-3.8-19.46,1.77-21.33,11.97-.27,1.48-.45,2.98-.7,4.62h-36.92c-.19-8.19,1.38-15.9,4.86-23.15,7.51-15.61,20.32-24.37,36.99-27.61,14.24-2.76,27.95-.9,40.71,6.33,26.37,14.95,30.71,51.14,8.99,71.39-6.74,6.28-14.49,11-22.44,15.49-6.06,3.43-12.09,6.93-17.97,10.66-3.18,2.01-5.83,4.7-7.31,9.01h57.04Zm-160.57-50.85c-7-4.4-14.47-4.42-21.63-.39-7.8,4.4-11.03,11.58-11.18,19.53.35,15.79,13.4,26.22,27.2,22.37,9.52-2.65,14.61-9.44,15.77-18.91,1.15-9.37-1.88-17.41-10.16-22.6Z"/>
</svg>