<?xml version="1.0" encoding="UTF-8"?>
<svg id="Calque_1" data-name="Calque 1" xmlns="http://www.w3.org/2000/svg" viewBox="0 0 400 400">
  <defs>
    <style>
      .cls-1 {
        fill: #fff;
        stroke-width: 0px;
      }
    </style>
  </defs>
  <path class="cls-1" d="m141.92,154.74h-8.11c-1.13,0-1.33.2-1.34,1.3v27.54c0,1.09.2,1.28,1.35,1.28,2.67,0,5.35,0,8.02,0,1.27,0,1.44-.17,1.44-1.48v-27.25c0-1.17-.22-1.39-1.36-1.39Zm0,0h-8.11c-1.13,0-1.33.2-1.34,1.3v27.54c0,1.09.2,1.28,1.35,1.28,2.67,0,5.35,0,8.02,0,1.27,0,1.44-.17,1.44-1.48v-27.25c0-1.17-.22-1.39-1.36-1.39Zm0,0h-8.11c-1.13,0-1.33.2-1.34,1.3v27.54c0,1.09.2,1.28,1.35,1.28,2.67,0,5.35,0,8.02,0,1.27,0,1.44-.17,1.44-1.48v-27.25c0-1.17-.22-1.39-1.36-1.39Zm0,0h-8.11c-1.13,0-1.33.2-1.34,1.3v27.54c0,1.09.2,1.28,1.35,1.28,2.67,0,5.35,0,8.02,0,1.27,0,1.44-.17,1.44-1.48v-27.25c0-1.17-.22-1.39-1.36-1.39Zm0,0h-8.11c-1.13,0-1.33.2-1.34,1.3v27.54c0,1.09.2,1.28,1.35,1.28,2.67,0,5.35,0,8.02,0,1.27,0,1.44-.17,1.44-1.48v-27.25c0-1.17-.22-1.39-1.36-1.39Zm0,0h-8.11c-1.13,0-1.33.2-1.34,1.3v27.54c0,1.09.2,1.28,1.35,1.28,2.67,0,5.35,0,8.02,0,1.27,0,1.44-.17,1.44-1.48v-27.25c0-1.17-.22-1.39-1.36-1.39Zm0,0h-8.11c-1.13,0-1.33.2-1.34,1.3v27.54c0,1.09.2,1.28,1.35,1.28,2.67,0,5.35,0,8.02,0,1.27,0,1.44-.17,1.44-1.48v-27.25c0-1.17-.22-1.39-1.36-1.39Zm138.98,61.6c0-1.02-.24-1.26-1.29-1.26h-9.04v13.28c3.2,0,6.31,0,9.42,0,.79-.01.92-.58.92-1.25,0-3.59,0-7.17,0-10.76Zm0,0c0-1.02-.24-1.26-1.29-1.26h-9.04v13.28c3.2,0,6.31,0,9.42,0,.79-.01.92-.58.92-1.25,0-3.59,0-7.17,0-10.76Zm-138.98-61.6h-8.11c-1.13,0-1.33.2-1.34,1.3v27.54c0,1.09.2,1.28,1.35,1.28,2.67,0,5.35,0,8.02,0,1.27,0,1.44-.17,1.44-1.48v-27.25c0-1.17-.22-1.39-1.36-1.39Zm0,0h-8.11c-1.13,0-1.33.2-1.34,1.3v27.54c0,1.09.2,1.28,1.35,1.28,2.67,0,5.35,0,8.02,0,1.27,0,1.44-.17,1.44-1.48v-27.25c0-1.17-.22-1.39-1.36-1.39Zm98.45,61.69c0-1.14-.2-1.35-1.3-1.35h-8.21c-1.1,0-1.33.23-1.33,1.33v27.44c0,1.09.3,1.38,1.41,1.38,2.67,0,5.35,0,8.02,0,1.19,0,1.41-.23,1.41-1.45,0-4.53,0-9.05,0-13.58s0-9.18,0-13.77Zm40.53-.09c0-1.02-.24-1.26-1.29-1.26h-9.04v13.28c3.2,0,6.31,0,9.42,0,.79-.01.92-.58.92-1.25,0-3.59,0-7.17,0-10.76Zm0,0c0-1.02-.24-1.26-1.29-1.26h-9.04v13.28c3.2,0,6.31,0,9.42,0,.79-.01.92-.58.92-1.25,0-3.59,0-7.17,0-10.76Zm-40.53.09c0-1.14-.2-1.35-1.3-1.35h-8.21c-1.1,0-1.33.23-1.33,1.33v27.44c0,1.09.3,1.38,1.41,1.38,2.67,0,5.35,0,8.02,0,1.19,0,1.41-.23,1.41-1.45,0-4.53,0-9.05,0-13.58s0-9.18,0-13.77Zm-98.45-61.69h-8.11c-1.13,0-1.33.2-1.34,1.3v27.54c0,1.09.2,1.28,1.35,1.28,2.67,0,5.35,0,8.02,0,1.27,0,1.44-.17,1.44-1.48v-27.25c0-1.17-.22-1.39-1.36-1.39Zm0,0h-8.11c-1.13,0-1.33.2-1.34,1.3v27.54c0,1.09.2,1.28,1.35,1.28,2.67,0,5.35,0,8.02,0,1.27,0,1.44-.17,1.44-1.48v-27.25c0-1.17-.22-1.39-1.36-1.39Zm98.45,61.69c0-1.14-.2-1.35-1.3-1.35h-8.21c-1.1,0-1.33.23-1.33,1.33v27.44c0,1.09.3,1.38,1.41,1.38,2.67,0,5.35,0,8.02,0,1.19,0,1.41-.23,1.41-1.45,0-4.53,0-9.05,0-13.58s0-9.18,0-13.77Zm40.53-.09c0-1.02-.24-1.26-1.29-1.26h-9.04v13.28c3.2,0,6.31,0,9.42,0,.79-.01.92-.58.92-1.25,0-3.59,0-7.17,0-10.76Zm0,0c0-1.02-.24-1.26-1.29-1.26h-9.04v13.28c3.2,0,6.31,0,9.42,0,.79-.01.92-.58.92-1.25,0-3.59,0-7.17,0-10.76Zm-40.53.09c0-1.14-.2-1.35-1.3-1.35h-8.21c-1.1,0-1.33.23-1.33,1.33v27.44c0,1.09.3,1.38,1.41,1.38,2.67,0,5.35,0,8.02,0,1.19,0,1.41-.23,1.41-1.45,0-4.53,0-9.05,0-13.58s0-9.18,0-13.77Zm-98.45-61.69h-8.11c-1.13,0-1.33.2-1.34,1.3v27.54c0,1.09.2,1.28,1.35,1.28,2.67,0,5.35,0,8.02,0,1.27,0,1.44-.17,1.44-1.48v-27.25c0-1.17-.22-1.39-1.36-1.39ZM200,0C89.54,0,0,89.54,0,200s89.55,200,200,200,200-89.54,200-200S310.46,0,200,0Zm97.79,145.14h30.91v9.59h-10.3v39.82h-10.22v-39.79h-10.39v-9.62Zm-197.07,69.93h-20.49v10.93h17.46v9.72h-17.48v19.12h-10.16v-49.42h30.67v9.65Zm.24-48.71c-.19.26-.43.49-.58.77-1.88,3.55-3.77,7.1-5.62,10.66-.32.62-.68.91-1.43.88-1.79-.07-3.59-.05-5.38-.01-.63.02-.96-.2-1.24-.74-1.84-3.53-3.7-7.05-5.57-10.57-.18-.36-.43-.68-.65-1.01-.08.03-.17.07-.25.1v28.11h-10.2v-49.39c.16-.03.33-.1.51-.1,2.83,0,5.66-.03,8.49.03.36.01.84.37,1.03.7,3.34,5.72,6.65,11.46,9.96,17.19.65,1.12.69,1.12,1.34,0,3.28-5.69,6.57-11.36,9.82-17.06.38-.66.8-.89,1.56-.88,2.86.04,5.72.02,8.65.02v49.51h-10.18v-28.09c-.09-.04-.17-.08-.26-.12Zm27.77,88.51c-2.61-10.88-5.24-21.8-7.86-32.72-.11,0-.23,0-.34.02-.09.24-.22.47-.28.73-2.41,10.28-4.82,20.57-7.19,30.86-.21.88-.52,1.21-1.47,1.19-2.73-.08-5.47-.03-8.21-.03h-1.13c.5-1.99.96-3.86,1.44-5.74,3.63-14.18,7.28-28.35,10.88-42.54.25-1,.63-1.34,1.68-1.31,3.02.08,6.04.02,9.06.02h1.09c4.28,16.53,8.55,32.99,12.84,49.52h-10.51Zm2.82-60.36c-5.26-.26-9.32-4.73-9.34-10-.02-4.93,0-9.87,0-14.8s-.01-9.56,0-14.34c0-5.88,4.43-10.31,10.3-10.31h10.67c5.93,0,10.37,4.39,10.38,10.34.02,9.52,0,19.05,0,28.57,0,5.98-3.95,10.33-9.94,10.6-4.02.19-8.06.14-12.07-.06Zm43.46,53.61c-1.33,3.92-4.96,6.67-9.1,6.76-3.8.09-7.61.1-11.41-.01-5.08-.14-9.43-4.44-9.52-9.52-.11-7.26-.04-14.52-.04-21.78-.01-2.64-.01-5.28,0-7.92.02-5.88,4.46-10.3,10.33-10.29,3.75,0,7.5-.13,11.22.12,4.87.32,8.74,4.54,8.95,9.47.1,2.22.02,4.44.02,6.72h-10.21v-4.8c0-1.7-.09-1.79-1.82-1.79h-6.99c-1.03,0-1.28.24-1.28,1.27v27.53c0,1.06.22,1.27,1.27,1.28,2.55.01,5.1.01,7.65,0,1.1,0,1.29-.21,1.29-1.35,0-1.73,0-3.45,0-5.24h10.05s.1.07.1.11c-.08,3.15.53,6.35-.52,9.44Zm6.04-70.23c-1.86-3.59-3.76-7.16-5.66-10.74-.15-.28-.34-.53-.51-.8-.08.03-.16.06-.24.09v28.1h-10.25v-49.48h1.37c2.48,0,4.97.02,7.45-.02.62-.01.95.2,1.25.74,3.31,5.77,6.65,11.53,9.98,17.29.56.98.68.98,1.25-.02,3.28-5.68,6.57-11.35,9.82-17.05.41-.73.86-.98,1.69-.96,2.82.05,5.64.02,8.53.02v49.5h-10.19v-28.11c-.08-.03-.16-.07-.24-.11-.21.3-.45.58-.62.9-1.89,3.55-3.78,7.09-5.63,10.65-.28.55-.58.79-1.22.77-1.82-.04-3.65-.04-5.47,0-.65.02-1-.18-1.31-.77Zm31.27,37.17h-9.82v39.82h-10.27v-39.76h-9.93v-9.68h30.02v9.62Zm4.27-69.92h30.75v9.6h-20.46v9.44h17.36v9.74h-17.35v10.94h20.92v9.68h-31.22v-49.4Zm34.06,99.86c-.02,5.27-4.43,9.77-9.69,9.89-3.99.1-7.99.1-11.98,0-5.32-.12-9.63-4.63-9.66-9.99-.02-4.94,0-9.87,0-14.81s0-9.62,0-14.43c0-5.82,4.43-10.29,10.23-10.3,4,0,8-.13,11.98.12,5.08.32,9.1,4.74,9.12,9.82.04,9.9.04,19.8,0,29.7Zm6.3-99.94c3.09,0,6.11-.02,9.12.03.27.01.63.43.79.74,3.86,7.65,7.7,15.3,11.55,22.95.17.33.4.63.6.95.09-.03.19-.06.29-.08v-24.54h10.2v49.46c-.26,0-.56.05-.86.05-2.58,0-5.16-.02-7.73.02-.67.01-1.01-.22-1.3-.8-3.85-7.68-7.71-15.36-11.58-23.03-.16-.32-.35-.61-.53-.92-.1.03-.2.05-.29.07v24.6h-10.26v-49.5Zm31.75,109.86c-1.77,0-3.53-.02-5.29,0-.59.01-.86-.15-1.06-.75-1.81-5.34-3.66-10.67-5.51-16.04h-6.3v16.73h-10.18v-49.52h1.16c6.26,0,12.52.12,18.77-.03,6.2-.14,10.82,4.52,10.87,10,.03,4.28.05,8.55-.02,12.82-.05,3.51-1.67,6.24-4.57,8.32,2.21,6.15,4.41,12.24,6.65,18.46h-4.52Zm38.97-43.39c-2.99,7.95-5.99,15.9-8.97,23.85-.2.55-.31,1.16-.31,1.74-.02,5.54,0,11.07,0,16.6v1.15h-10.22v-1.13c0-5.41.03-10.82-.02-16.22,0-.91-.23-1.87-.55-2.73-3.57-9.5-7.18-19-10.78-28.49-.09-.26-.17-.53-.3-.94,3.42,0,6.69-.02,9.96.03.24,0,.61.46.71.77,1.59,4.82,3.14,9.65,4.7,14.48.39,1.2.79,2.4,1.19,3.6.1,0,.21.01.31.01.13-.31.29-.62.39-.94,1.82-5.67,3.65-11.34,5.43-17.02.23-.72.53-.97,1.31-.96,2.79.06,5.59.02,8.39.02h1.07c-.8,2.16-1.54,4.17-2.3,6.18Zm-48.05,3.55h-9.04v13.28c3.2,0,6.31,0,9.42,0,.79-.01.92-.58.92-1.25,0-3.59,0-7.17,0-10.76,0-1.02-.24-1.26-1.29-1.26Zm-40.54,0h-8.21c-1.1,0-1.33.23-1.33,1.33v27.44c0,1.09.3,1.38,1.41,1.38,2.67,0,5.35,0,8.02,0,1.19,0,1.41-.23,1.41-1.45,0-4.53,0-9.05,0-13.58s0-9.18,0-13.77c0-1.14-.2-1.35-1.3-1.35Zm-97.15-60.34h-8.11c-1.13,0-1.33.2-1.34,1.3v27.54c0,1.09.2,1.28,1.35,1.28,2.67,0,5.35,0,8.02,0,1.27,0,1.44-.17,1.44-1.48v-27.25c0-1.17-.22-1.39-1.36-1.39Zm0,0h-8.11c-1.13,0-1.33.2-1.34,1.3v27.54c0,1.09.2,1.28,1.35,1.28,2.67,0,5.35,0,8.02,0,1.27,0,1.44-.17,1.44-1.48v-27.25c0-1.17-.22-1.39-1.36-1.39Zm98.45,61.69c0-1.14-.2-1.35-1.3-1.35h-8.21c-1.1,0-1.33.23-1.33,1.33v27.44c0,1.09.3,1.38,1.41,1.38,2.67,0,5.35,0,8.02,0,1.19,0,1.41-.23,1.41-1.45,0-4.53,0-9.05,0-13.58s0-9.18,0-13.77Zm40.53-.09c0-1.02-.24-1.26-1.29-1.26h-9.04v13.28c3.2,0,6.31,0,9.42,0,.79-.01.92-.58.92-1.25,0-3.59,0-7.17,0-10.76Zm0,0c0-1.02-.24-1.26-1.29-1.26h-9.04v13.28c3.2,0,6.31,0,9.42,0,.79-.01.92-.58.92-1.25,0-3.59,0-7.17,0-10.76Zm-40.53.09c0-1.14-.2-1.35-1.3-1.35h-8.21c-1.1,0-1.33.23-1.33,1.33v27.44c0,1.09.3,1.38,1.41,1.38,2.67,0,5.35,0,8.02,0,1.19,0,1.41-.23,1.41-1.45,0-4.53,0-9.05,0-13.58s0-9.18,0-13.77Zm-98.45-61.69h-8.11c-1.13,0-1.33.2-1.34,1.3v27.54c0,1.09.2,1.28,1.35,1.28,2.67,0,5.35,0,8.02,0,1.27,0,1.44-.17,1.44-1.48v-27.25c0-1.17-.22-1.39-1.36-1.39Zm0,0h-8.11c-1.13,0-1.33.2-1.34,1.3v27.54c0,1.09.2,1.28,1.35,1.28,2.67,0,5.35,0,8.02,0,1.27,0,1.44-.17,1.44-1.48v-27.25c0-1.17-.22-1.39-1.36-1.39Zm98.45,61.69c0-1.14-.2-1.35-1.3-1.35h-8.21c-1.1,0-1.33.23-1.33,1.33v27.44c0,1.09.3,1.38,1.41,1.38,2.67,0,5.35,0,8.02,0,1.19,0,1.41-.23,1.41-1.45,0-4.53,0-9.05,0-13.58s0-9.18,0-13.77Zm40.53-.09c0-1.02-.24-1.26-1.29-1.26h-9.04v13.28c3.2,0,6.31,0,9.42,0,.79-.01.92-.58.92-1.25,0-3.59,0-7.17,0-10.76Zm0,0c0-1.02-.24-1.26-1.29-1.26h-9.04v13.28c3.2,0,6.31,0,9.42,0,.79-.01.92-.58.92-1.25,0-3.59,0-7.17,0-10.76Zm-40.53.09c0-1.14-.2-1.35-1.3-1.35h-8.21c-1.1,0-1.33.23-1.33,1.33v27.44c0,1.09.3,1.38,1.41,1.38,2.67,0,5.35,0,8.02,0,1.19,0,1.41-.23,1.41-1.45,0-4.53,0-9.05,0-13.58s0-9.18,0-13.77Zm-98.45-61.69h-8.11c-1.13,0-1.33.2-1.34,1.3v27.54c0,1.09.2,1.28,1.35,1.28,2.67,0,5.35,0,8.02,0,1.27,0,1.44-.17,1.44-1.48v-27.25c0-1.17-.22-1.39-1.36-1.39Zm0,0h-8.11c-1.13,0-1.33.2-1.34,1.3v27.54c0,1.09.2,1.28,1.35,1.28,2.67,0,5.35,0,8.02,0,1.27,0,1.44-.17,1.44-1.48v-27.25c0-1.17-.22-1.39-1.36-1.39Zm0,0h-8.11c-1.13,0-1.33.2-1.34,1.3v27.54c0,1.09.2,1.28,1.35,1.28,2.67,0,5.35,0,8.02,0,1.27,0,1.44-.17,1.44-1.48v-27.25c0-1.17-.22-1.39-1.36-1.39Zm0,0h-8.11c-1.13,0-1.33.2-1.34,1.3v27.54c0,1.09.2,1.28,1.35,1.28,2.67,0,5.35,0,8.02,0,1.27,0,1.44-.17,1.44-1.48v-27.25c0-1.17-.22-1.39-1.36-1.39Zm0,0h-8.11c-1.13,0-1.33.2-1.34,1.3v27.54c0,1.09.2,1.28,1.35,1.28,2.67,0,5.35,0,8.02,0,1.27,0,1.44-.17,1.44-1.48v-27.25c0-1.17-.22-1.39-1.36-1.39Zm0,0h-8.11c-1.13,0-1.33.2-1.34,1.3v27.54c0,1.09.2,1.28,1.35,1.28,2.67,0,5.35,0,8.02,0,1.27,0,1.44-.17,1.44-1.48v-27.25c0-1.17-.22-1.39-1.36-1.39Zm0,0h-8.11c-1.13,0-1.33.2-1.34,1.3v27.54c0,1.09.2,1.28,1.35,1.28,2.67,0,5.35,0,8.02,0,1.27,0,1.44-.17,1.44-1.48v-27.25c0-1.17-.22-1.39-1.36-1.39Z"/>
</svg>