<?xml version="1.0" encoding="UTF-8"?>
<svg id="Calque_1" data-name="Calque 1" xmlns="http://www.w3.org/2000/svg" viewBox="0 0 400 400">
  <defs>
    <style>
      .cls-1 {
        fill: #fff;
        stroke-width: 0px;
      }
    </style>
  </defs>
  <path class="cls-1" d="m159.03,196.96c-8.99-.06-15.74,6.67-15.77,15.72-.03,8.95,6.87,15.91,15.72,15.85,8.86-.06,15.52-6.83,15.55-15.8.02-8.99-6.59-15.72-15.5-15.77Zm0,0c-8.99-.06-15.74,6.67-15.77,15.72-.03,8.95,6.87,15.91,15.72,15.85,8.86-.06,15.52-6.83,15.55-15.8.02-8.99-6.59-15.72-15.5-15.77Zm0,0c-8.99-.06-15.74,6.67-15.77,15.72-.03,8.95,6.87,15.91,15.72,15.85,8.86-.06,15.52-6.83,15.55-15.8.02-8.99-6.59-15.72-15.5-15.77Zm103.53-4.85c-2.01-3.24-5-4.83-8.82-4.48-6.71.62-13.61,9.05-13.1,15.93h24.71c.09-4.22-.66-8.02-2.79-11.45Zm0,0c-2.01-3.24-5-4.83-8.82-4.48-6.71.62-13.61,9.05-13.1,15.93h24.71c.09-4.22-.66-8.02-2.79-11.45Zm-103.53,4.85c-8.99-.06-15.74,6.67-15.77,15.72-.03,8.95,6.87,15.91,15.72,15.85,8.86-.06,15.52-6.83,15.55-15.8.02-8.99-6.59-15.72-15.5-15.77ZM200,0C89.54,0,0,89.54,0,200s89.55,200,200,200,200-89.54,200-200S310.46,0,200,0Zm-102,234.26c-9.62,10.25-28.38,7.28-34.3-5.43-.29-.62-.5-1.26-.8-2.02,3.55-1.39,7.01-2.75,10.56-4.15.34.67.6,1.23.9,1.78,2.45,4.5,8.09,6.43,12.81,4.41,2.46-1.06,3.74-3.02,3.57-5.49-.14-2.09-1.38-3.49-4.02-4.19-2.75-.74-5.58-1.18-8.31-1.98-2.11-.63-4.22-1.42-6.14-2.48-5.62-3.12-8.67-7.85-8.37-14.43.3-6.56,4-10.78,9.71-13.38,9.15-4.19,20.1-1.37,25.29,6.41.59.88,1.06,1.85,1.7,2.98-3.64,1.44-7.15,2.83-10.65,4.21-1.93-4.8-7.37-5.69-11.62-3.74-1.76.81-2.93,2.18-2.96,4.28-.03,2.19,1.09,3.72,3,4.41,2.31.82,4.78,1.19,7.13,1.91,3,.93,6.17,1.63,8.9,3.11,8.98,4.87,10.6,16.34,3.6,23.79Zm24.42,4.65h-11.92v-53.51h11.92v53.51Zm-6-64.8c-3.6,0-6.61-3.06-6.64-6.7-.02-3.7,3.12-6.85,6.77-6.77,3.65.08,6.49,3.07,6.47,6.8-.02,3.7-2.98,6.69-6.6,6.67Zm70.33,64.85c-3.06,0-6.2.07-9.33-.06-.49-.02-.98-.87-1.42-1.38-.44-.53-.81-1.11-1.3-1.78-7.32,4.49-15.08,5.84-23.35,3.62-6.03-1.61-10.93-4.91-14.72-9.86-7.44-9.74-7.43-23.88.06-33.65,4.48-5.86,10.46-9.33,17.71-10.47,7.13-1.12,13.84.28,20.35,4.37v-30.23h12v79.44Zm40.05-.11h-26.12v-2.85c2.35-.12,4.72-.25,7.16-.38v-73.15h-7.23v-2.93h17.81v76.07c2.9.14,5.6.26,8.38.39v2.85Zm50.96-15.56c-3.62,11.44-11.82,17.34-23.72,17.13-11.73-.21-21.5-7.53-24.41-18.69-2.67-10.25-1.59-20,5.76-28.16,6.68-7.41,15.18-10.46,24.9-7.56,9.94,2.95,15.59,10.12,17.43,20.3.01.05-.03.11-.12.36h-37.81c.41,3.4.63,6.59,1.2,9.72.78,4.34,2.31,8.4,5.26,11.83,7.34,8.55,20.54,7.93,26.84-1.43,1.6-2.37,2.59-5.16,3.97-7.98.28.08.86.23,1.72.46-.35,1.38-.61,2.73-1.02,4.02Zm37.98,17.09c-12.94,1.03-24.19-6.15-27.49-18.08-3.16-11.44-1.68-22.14,7.43-30.59,6.74-6.26,14.89-8.49,23.76-5.53,9.15,3.05,14.51,9.8,16.61,19.17.08.35.01.73.01,1.33h-37.71c.49,8.61,1.27,16.83,7.85,23.07,7.81,7.4,20.39,5.49,25.99-3.95,1.28-2.15,2.09-4.57,3.21-7.07.46.15,1.1.35,1.71.54-1.68,11.95-10.08,20.21-21.37,21.11Zm4.73-49.04c-2.28-3.08-5.4-4.14-9.2-3.59-6.81.99-11.85,9.21-12.27,15.8h24.92c-.18-4.5-.81-8.66-3.45-12.21Zm-55.11,12.22c.09-4.22-.66-8.02-2.79-11.45-2.01-3.24-5-4.83-8.82-4.48-6.71.62-13.61,9.05-13.1,15.93h24.71Zm-106.32-6.6c-8.99-.06-15.74,6.67-15.77,15.72-.03,8.95,6.87,15.91,15.72,15.85,8.86-.06,15.52-6.83,15.55-15.8.02-8.99-6.59-15.72-15.5-15.77Zm0,0c-8.99-.06-15.74,6.67-15.77,15.72-.03,8.95,6.87,15.91,15.72,15.85,8.86-.06,15.52-6.83,15.55-15.8.02-8.99-6.59-15.72-15.5-15.77Zm0,0c-8.99-.06-15.74,6.67-15.77,15.72-.03,8.95,6.87,15.91,15.72,15.85,8.86-.06,15.52-6.83,15.55-15.8.02-8.99-6.59-15.72-15.5-15.77Z"/>
</svg>